# propeller-blade.obj — one blade of a 0.6 m diameter NAB propeller.
#
# GENERATED FILE. Do not hand-edit: regenerate with
#   python3 examples/am-marine-propeller/generate-geometry.py
# which is deterministic and reproduces this file byte-for-byte.
#
# Frame (metres): +X shaft axis / thrust, +Z blade reference line at
# the root (the blade grows outward in +Z), +Y tangential (skew).
#
# Diameter 0.600 m, root at r/R = 0.30, P/D = 0.90, skew 22 deg,
# rake 12 mm aft, 21 radial sections x 32 section points.
#
# 672 vertices, 700 faces (1340 Tri3 cells after obj-reader fan-triangulation).
# Enclosed volume 264.1 cm^3, radius range 0.0900..0.3000 m.
# Bounding box (-0.0407, -0.0552, 0.0812) .. (0.0373, 0.1278, 0.2828) m.
#
# Surfaces are named with `g` groups, which obj-reader ignores:
#   blade_back  — suction side
#   blade_face  — pressure side
#   blade_root  — hub interface (the printed part's first layer)
#   blade_tip   — tip cap
#
# They are deliberately NOT `usemtl` groups. obj-reader maps usemtl
# names to per-cell tags, and every AM capability reads a non-negative
# cell tag as a LAYER INDEX (contract § 2.2 rule 1) — a usemtl-tagged
# OBJ would be simulated as a four-layer part with the suction side in
# layer 1. Untagged cells (tag -1) send every AM capability down its
# documented fallback: bin the cell centroid along build_direction by
# layer_height, which is what this example wants.
#
# Faces are quads wound CCW seen from outside, so normals point out
# of the solid (the enclosed volume above is positive).

v -0.037294 -0.037840 0.081659
v -0.034583 -0.038883 0.081167
v -0.030618 -0.038466 0.081366
v -0.025571 -0.036575 0.082233
v -0.019683 -0.033198 0.083653
v -0.013220 -0.028366 0.085413
v -0.006443 -0.022190 0.087222
v 0.000410 -0.014890 0.088760
v 0.007131 -0.006803 0.089743
v 0.013528 0.001648 0.089985
v 0.019429 0.010000 0.089443
v 0.024671 0.017805 0.088221
v 0.029117 0.024673 0.086552
v 0.032658 0.030293 0.084749
v 0.035225 0.034444 0.083148
v 0.036775 0.036985 0.082049
v 0.037294 0.037840 0.081659
v 0.036450 0.037268 0.081921
v 0.033959 0.035557 0.082678
v 0.029937 0.032727 0.083839
v 0.024562 0.028825 0.085259
v 0.018063 0.023941 0.086757
v 0.010715 0.018215 0.088137
v 0.002826 0.011834 0.089219
v -0.005256 0.005017 0.089860
v -0.013158 -0.002001 0.089978
v -0.020500 -0.008983 0.089551
v -0.026923 -0.015693 0.088621
v -0.032121 -0.021902 0.087294
v -0.035867 -0.027391 0.085731
v -0.038017 -0.031965 0.084132
v -0.038500 -0.035478 0.082712
v -0.038084 -0.042297 0.091166
v -0.035247 -0.043173 0.090754
v -0.031139 -0.042444 0.091097
v -0.025944 -0.040101 0.092153
v -0.019914 -0.036141 0.093777
v -0.013329 -0.030606 0.095726
v -0.006461 -0.023630 0.097683
v 0.000446 -0.015463 0.099303
v 0.007182 -0.006475 0.100291
v 0.013558 0.002873 0.100459
v 0.019405 0.012080 0.099771
v 0.024571 0.020663 0.098353
v 0.028930 0.028200 0.096463
v 0.032387 0.034358 0.094444
v 0.034881 0.038902 0.092665
v 0.036383 0.041681 0.091449
v 0.036884 0.042616 0.091017
v 0.036039 0.041948 0.091327
v 0.033543 0.039954 0.092217
v 0.029510 0.036659 0.093575
v 0.024116 0.032126 0.095227
v 0.017588 0.026467 0.096952
v 0.010195 0.019854 0.098519
v 0.002246 0.012514 0.099718
v -0.005910 0.004715 0.100389
v -0.013894 -0.003260 0.100447
v -0.021318 -0.011126 0.099882
v -0.027812 -0.018607 0.098762
v -0.033060 -0.025446 0.097225
v -0.036827 -0.031408 0.095466
v -0.038960 -0.036292 0.093718
v -0.039387 -0.039950 0.092218
v -0.038759 -0.046367 0.100852
v -0.035829 -0.047073 0.100525
v -0.031610 -0.046029 0.101006
v -0.026295 -0.043232 0.102235
v -0.020149 -0.038688 0.104040
v -0.013463 -0.032455 0.106149
v -0.006520 -0.024689 0.108219
v 0.000428 -0.015670 0.109888
v 0.007167 -0.005800 0.110848
v 0.013511 0.004421 0.110912
v 0.019295 0.014458 0.110054
v 0.024378 0.023792 0.108420
v 0.028643 0.031974 0.106295
v 0.032007 0.038651 0.104053
v 0.034424 0.043572 0.102091
v 0.035876 0.046580 0.100754
v 0.036359 0.047591 0.100280
v 0.035519 0.046830 0.100638
v 0.033036 0.044558 0.101664
v 0.029021 0.040809 0.103226
v 0.023645 0.035659 0.105116
v 0.017128 0.029242 0.107079
v 0.009734 0.021760 0.108846
v 0.001768 0.013481 0.110178
v -0.006424 0.004719 0.110900
v -0.014459 -0.004194 0.110921
v -0.021943 -0.012927 0.110245
v -0.028497 -0.021165 0.108963
v -0.033796 -0.028624 0.107246
v -0.037593 -0.035050 0.105321
v -0.039729 -0.040238 0.103450
v -0.040126 -0.044038 0.101890
v -0.039264 -0.049908 0.110777
v -0.036276 -0.050442 0.110534
v -0.031984 -0.049087 0.111143
v -0.026586 -0.045842 0.112520
v -0.020357 -0.040725 0.114471
v -0.013603 -0.033813 0.116700
v -0.006615 -0.025284 0.118840
v 0.000349 -0.015447 0.120514
v 0.007069 -0.004738 0.121408
v 0.013361 0.006310 0.121336
v 0.019066 0.017127 0.120287
v 0.024049 0.027166 0.118424
v 0.028208 0.035952 0.116059
v 0.031471 0.043112 0.113594
v 0.033804 0.048385 0.111450
v 0.035200 0.051606 0.109996
v 0.035664 0.052689 0.109481
v 0.034836 0.051840 0.109886
v 0.032386 0.049304 0.111047
v 0.028421 0.045122 0.112811
v 0.023103 0.039384 0.114940
v 0.016644 0.032245 0.117143
v 0.009299 0.023935 0.119119
v 0.001366 0.014761 0.120600
v -0.006813 0.005079 0.121394
v -0.014858 -0.004731 0.121408
v -0.022368 -0.014293 0.120656
v -0.028960 -0.023258 0.119253
v -0.034297 -0.031311 0.117396
v -0.038125 -0.038185 0.115344
v -0.040277 -0.043666 0.113382
v -0.040666 -0.047601 0.111787
v -0.039230 -0.052295 0.121199
v -0.036232 -0.052666 0.121038
v -0.031934 -0.051024 0.121740
v -0.026539 -0.047377 0.123205
v -0.020328 -0.041755 0.125222
v -0.013610 -0.034256 0.127477
v -0.006684 -0.025084 0.129595
v 0.000191 -0.014574 0.131193
v 0.006795 -0.003189 0.131961
v 0.012947 0.008513 0.131725
v 0.018495 0.019940 0.130485
v 0.023316 0.030524 0.128422
v 0.027317 0.039776 0.125865
v 0.030440 0.047311 0.123230
v 0.032664 0.052857 0.120955
v 0.033990 0.056245 0.119417
v 0.034430 0.057383 0.118875
v 0.033624 0.056460 0.119316
v 0.031239 0.053706 0.120580
v 0.027375 0.049169 0.122501
v 0.022186 0.042948 0.124818
v 0.015873 0.035217 0.127215
v 0.008678 0.026232 0.129367
v 0.000890 0.016327 0.130986
v -0.007160 0.005894 0.131868
v -0.015095 -0.004650 0.131918
v -0.022519 -0.014895 0.131157
v -0.029047 -0.024460 0.129714
v -0.034340 -0.033008 0.127806
v -0.038138 -0.040254 0.125712
v -0.040270 -0.045977 0.123734
v -0.040644 -0.050019 0.122156
v -0.039216 -0.054141 0.131814
v -0.036229 -0.054352 0.131727
v -0.031942 -0.052429 0.132505
v -0.026562 -0.048386 0.134034
v -0.020375 -0.042269 0.136087
v -0.013696 -0.034196 0.138336
v -0.006827 -0.024397 0.140396
v -0.000033 -0.013234 0.141884
v 0.006466 -0.001197 0.142495
v 0.012491 0.011134 0.142064
v 0.017897 0.023145 0.140608
v 0.022568 0.034250 0.138323
v 0.026423 0.043945 0.135555
v 0.029417 0.051835 0.132738
v 0.031538 0.057640 0.130322
v 0.032799 0.061184 0.128696
v 0.033216 0.062375 0.128123
v 0.032434 0.061383 0.128602
v 0.030120 0.058421 0.129974
v 0.026366 0.053544 0.132058
v 0.021317 0.046864 0.134573
v 0.015160 0.038569 0.137181
v 0.008127 0.028937 0.139531
v 0.000492 0.018332 0.141316
v -0.007422 0.007176 0.142319
v -0.015246 -0.004078 0.142442
v -0.022587 -0.014985 0.141710
v -0.029059 -0.025136 0.140266
v -0.034321 -0.034168 0.138343
v -0.038106 -0.041782 0.136237
v -0.040238 -0.047745 0.134263
v -0.040620 -0.051895 0.132715
v -0.039082 -0.055168 0.142708
v -0.036129 -0.055226 0.142685
v -0.031881 -0.053035 0.143514
v -0.026547 -0.048619 0.145070
v -0.020414 -0.042040 0.147111
v -0.013801 -0.033437 0.149302
v -0.007017 -0.023066 0.151251
v -0.000326 -0.011313 0.152581
v 0.006050 0.001306 0.152994
v 0.011935 0.014192 0.152340
v 0.017188 0.026712 0.150650
v 0.021703 0.038269 0.148137
v 0.025409 0.048348 0.145160
v 0.028272 0.056544 0.142168
v 0.030291 0.062571 0.139620
v 0.031487 0.066251 0.137912
v 0.031882 0.067488 0.137311
v 0.031127 0.066433 0.137825
v 0.028893 0.063287 0.139297
v 0.025264 0.058110 0.141535
v 0.020375 0.051022 0.144242
v 0.014400 0.042227 0.147057
v 0.007557 0.032021 0.149612
v 0.000106 0.020792 0.151581
v -0.007641 0.008991 0.152736
v -0.015323 -0.002900 0.152973
v -0.022553 -0.014406 0.152320
v -0.028946 -0.025088 0.150929
v -0.034161 -0.034564 0.149045
v -0.037927 -0.042517 0.146974
v -0.040060 -0.048703 0.145042
v -0.040458 -0.052952 0.143545
v -0.038643 -0.054946 0.153991
v -0.035749 -0.054865 0.154020
v -0.031581 -0.052440 0.154862
v -0.026345 -0.047703 0.156386
v -0.020330 -0.040735 0.158344
v -0.013853 -0.031699 0.160398
v -0.007220 -0.020872 0.162162
v -0.000697 -0.008665 0.163270
v 0.005497 0.004389 0.163441
v 0.011192 0.017677 0.162542
v 0.016253 0.030559 0.160619
v 0.020582 0.042431 0.157898
v 0.024118 0.052774 0.154749
v 0.026836 0.061182 0.151621
v 0.028744 0.067365 0.148977
v 0.029871 0.071139 0.147212
v 0.030243 0.072407 0.146593
v 0.029519 0.071306 0.147132
v 0.027376 0.068019 0.148680
v 0.023893 0.062614 0.151036
v 0.019193 0.055218 0.153894
v 0.013438 0.046046 0.156882
v 0.006831 0.035409 0.159620
v -0.000380 0.023710 0.161772
v -0.007895 0.011420 0.163101
v -0.015368 -0.000957 0.163497
v -0.022418 -0.012926 0.162988
v -0.028669 -0.024025 0.161725
v -0.033779 -0.033853 0.159957
v -0.037478 -0.042076 0.157993
v -0.039582 -0.048439 0.156160
v -0.039984 -0.052763 0.154752
v -0.038280 -0.054034 0.165397
v -0.035456 -0.053820 0.165467
v -0.031374 -0.051168 0.166307
v -0.026239 -0.046122 0.167776
v -0.020338 -0.038780 0.169623
v -0.013988 -0.029327 0.171511
v -0.007494 -0.018064 0.173060
v -0.001124 -0.005425 0.173915
v 0.004909 0.008042 0.173814
v 0.010433 0.021709 0.172640
v 0.015322 0.034929 0.170458
v 0.019484 0.047095 0.167505
v 0.022867 0.057684 0.164160
v 0.025455 0.066287 0.160879
v 0.027265 0.072611 0.158125
v 0.028329 0.076471 0.156295
v 0.028680 0.077768 0.155654
v 0.027987 0.076623 0.156221
v 0.025935 0.073207 0.157850
v 0.022595 0.067591 0.160336
v 0.018080 0.059910 0.163361
v 0.012540 0.050388 0.166544
v 0.006164 0.039349 0.169492
v -0.000815 0.027209 0.171859
v -0.008110 0.014458 0.173398
v -0.015384 0.001618 0.173992
v -0.022268 -0.010793 0.173665
v -0.028389 -0.022292 0.172566
v -0.033411 -0.032460 0.170945
v -0.037061 -0.040947 0.169113
v -0.039151 -0.047484 0.167396
v -0.039573 -0.051883 0.166085
v -0.037702 -0.051809 0.177076
v -0.034976 -0.051472 0.177175
v -0.031017 -0.048625 0.177977
v -0.026028 -0.043323 0.179342
v -0.020292 -0.035682 0.181017
v -0.014121 -0.025908 0.182672
v -0.007817 -0.014325 0.183943
v -0.001644 -0.001384 0.184495
v 0.004188 0.012354 0.184086
v 0.009512 0.026258 0.182622
v 0.014206 0.039680 0.180183
v 0.018186 0.052014 0.177016
v 0.021407 0.062740 0.173505
v 0.023861 0.071451 0.170103
v 0.025570 0.077854 0.167269
v 0.026573 0.081763 0.165394
v 0.026902 0.083076 0.164738
v 0.026244 0.081900 0.165326
v 0.024292 0.078393 0.167017
v 0.021111 0.072630 0.169603
v 0.016804 0.064752 0.172764
v 0.011509 0.054991 0.176114
v 0.005399 0.043676 0.179256
v -0.001304 0.031235 0.181837
v -0.008331 0.018165 0.183604
v -0.015356 0.005003 0.184432
v -0.022024 -0.007720 0.184338
v -0.027969 -0.019506 0.183466
v -0.032862 -0.029920 0.182058
v -0.036434 -0.038597 0.180418
v -0.038495 -0.045256 0.178864
v -0.038934 -0.049699 0.177680
v -0.036853 -0.048002 0.188999
v -0.034250 -0.047557 0.189112
v -0.030457 -0.044559 0.189841
v -0.025669 -0.039074 0.191045
v -0.020160 -0.031237 0.192482
v -0.014234 -0.021272 0.193836
v -0.008185 -0.009524 0.194767
v -0.002267 0.003547 0.194968
v 0.003312 0.017375 0.194224
v 0.008394 0.031332 0.192466
v 0.012862 0.044778 0.189789
v 0.016639 0.057120 0.186446
v 0.019685 0.067847 0.182816
v 0.021998 0.076557 0.179343
v 0.023604 0.082960 0.176473
v 0.024544 0.086869 0.174582
v 0.024853 0.088183 0.173922
v 0.024232 0.086993 0.174520
v 0.022388 0.083444 0.176244
v 0.019383 0.077615 0.178888
v 0.015308 0.069652 0.182136
v 0.010289 0.059790 0.185608
v 0.004488 0.048362 0.188908
v -0.001891 0.035797 0.191686
v -0.008591 0.022593 0.193687
v -0.015306 0.009290 0.194779
v -0.021693 -0.003574 0.194967
v -0.027402 -0.015495 0.194383
v -0.032113 -0.026026 0.193255
v -0.035563 -0.034792 0.191871
v -0.037568 -0.041502 0.190532
v -0.038014 -0.045946 0.189510
v -0.036116 -0.043348 0.200876
v -0.033640 -0.042802 0.200993
v -0.030010 -0.039667 0.201635
v -0.025416 -0.034019 0.202665
v -0.020123 -0.026007 0.203848
v -0.014428 -0.015878 0.204886
v -0.008614 -0.003989 0.205461
v -0.002932 0.009187 0.205295
v 0.002418 0.023080 0.204200
v 0.007282 0.037068 0.202129
v 0.011548 0.050520 0.199193
v 0.015144 0.062852 0.195652
v 0.018035 0.073562 0.191882
v 0.020225 0.082256 0.188319
v 0.021741 0.088648 0.185396
v 0.022626 0.092551 0.183479
v 0.022916 0.093863 0.182811
v 0.022330 0.092661 0.183423
v 0.020591 0.089082 0.185188
v 0.017751 0.083204 0.187903
v 0.013895 0.075177 0.191256
v 0.009137 0.065239 0.194870
v 0.003626 0.053725 0.198353
v -0.002448 0.041063 0.201356
v -0.008843 0.027754 0.203617
v -0.015267 0.014337 0.204999
v -0.021393 0.001355 0.205496
v -0.026885 -0.010679 0.205222
v -0.031431 -0.021310 0.204392
v -0.034777 -0.030152 0.203276
v -0.036737 -0.036903 0.202159
v -0.037201 -0.041345 0.201298
v -0.035038 -0.036717 0.212857
v -0.032713 -0.036094 0.212963
v -0.029291 -0.032885 0.213482
v -0.024951 -0.027179 0.214283
v -0.019947 -0.019139 0.215150
v -0.014560 -0.009024 0.215811
v -0.009061 0.002796 0.215982
v -0.003688 0.015847 0.215418
v 0.001367 0.029568 0.213967
v 0.005956 0.043349 0.211605
v 0.009975 0.056581 0.208458
v 0.013357 0.068700 0.204784
v 0.016072 0.079222 0.200947
v 0.018123 0.087763 0.197367
v 0.019540 0.094045 0.194452
v 0.020367 0.097882 0.192549
v 0.020638 0.099171 0.191888
v 0.020091 0.097980 0.192499
v 0.018465 0.094430 0.194265
v 0.015809 0.088604 0.196991
v 0.012200 0.080653 0.200377
v 0.007741 0.070815 0.204062
v 0.002569 0.059420 0.207666
v -0.003141 0.046888 0.210849
v -0.009162 0.033712 0.213353
v -0.015221 0.020420 0.215033
v -0.021008 0.007549 0.215868
v -0.026207 -0.004392 0.215955
v -0.030520 -0.014945 0.215482
v -0.033703 -0.023721 0.214694
v -0.035580 -0.030410 0.213849
v -0.036042 -0.034787 0.213180
v -0.033769 -0.028314 0.224723
v -0.031609 -0.027634 0.224808
v -0.028420 -0.024410 0.225181
v -0.024372 -0.018737 0.225724
v -0.019700 -0.010791 0.226243
v -0.014667 -0.000840 0.226498
v -0.009530 0.010742 0.226245
v -0.004511 0.023487 0.225279
v 0.000209 0.036847 0.223483
v 0.004494 0.050239 0.220858
v 0.008243 0.063080 0.217539
v 0.011395 0.074832 0.213781
v 0.013922 0.085034 0.209932
v 0.015831 0.093317 0.206383
v 0.017149 0.099412 0.203518
v 0.017917 0.103136 0.201656
v 0.018169 0.104389 0.201011
v 0.017661 0.103223 0.201612
v 0.016153 0.099751 0.203352
v 0.013689 0.094058 0.206047
v 0.010337 0.086293 0.209418
v 0.006194 0.076691 0.213121
v 0.001384 0.065575 0.216800
v -0.003931 0.053351 0.220127
v -0.009540 0.040492 0.222851
v -0.015191 0.027513 0.224823
v -0.020594 0.014934 0.226007
v -0.025453 0.003252 0.226477
v -0.029491 -0.007079 0.226389
v -0.032477 -0.015671 0.225957
v -0.034245 -0.022212 0.225408
v -0.034692 -0.026473 0.224948
v -0.032639 -0.018933 0.236243
v -0.030639 -0.018207 0.236300
v -0.027675 -0.014986 0.236526
v -0.023903 -0.009373 0.236815
v -0.019543 -0.001550 0.236995
v -0.014844 0.008205 0.236858
v -0.010044 0.019519 0.236195
v -0.005352 0.031930 0.234839
v -0.000939 0.044909 0.232706
v 0.003066 0.057893 0.229820
v 0.006570 0.070327 0.226325
v 0.009515 0.081698 0.222473
v 0.011875 0.091568 0.218596
v 0.013657 0.099583 0.215063
v 0.014887 0.105481 0.212233
v 0.015604 0.109087 0.210402
v 0.015839 0.110300 0.209769
v 0.015368 0.109163 0.210363
v 0.013969 0.105779 0.212084
v 0.011683 0.100232 0.214762
v 0.008571 0.092672 0.218130
v 0.004721 0.083328 0.221868
v 0.000248 0.072513 0.225635
v -0.004699 0.060619 0.229116
v -0.009925 0.048104 0.232067
v -0.015196 0.035464 0.234332
v -0.020242 0.023202 0.235862
v -0.024785 0.011807 0.236706
v -0.028567 0.001722 0.236994
v -0.031373 -0.006665 0.236906
v -0.033043 -0.013043 0.236641
v -0.033481 -0.017179 0.236377
v -0.030773 -0.006080 0.247425
v -0.028988 -0.005350 0.247442
v -0.026337 -0.002272 0.247490
v -0.022962 0.003049 0.247481
v -0.019057 0.010428 0.247280
v -0.014845 0.019595 0.246723
v -0.010539 0.030193 0.245651
v -0.006327 0.041785 0.243947
v -0.002361 0.053882 0.241564
v 0.001242 0.065966 0.238547
v 0.004398 0.077531 0.235043
v 0.007054 0.088108 0.231286
v 0.009185 0.097293 0.227575
v 0.010797 0.104758 0.224236
v 0.011910 0.110258 0.221584
v 0.012560 0.113623 0.219877
v 0.012773 0.114755 0.219289
v 0.012350 0.113688 0.219844
v 0.011092 0.110512 0.221457
v 0.009037 0.105312 0.223977
v 0.006240 0.098232 0.227171
v 0.002781 0.089493 0.230754
v -0.001238 0.079387 0.234423
v -0.005680 0.068279 0.237895
v -0.010372 0.056593 0.240943
v -0.015102 0.044785 0.243414
v -0.019629 0.033323 0.245246
v -0.023706 0.022661 0.246460
v -0.027101 0.013218 0.247147
v -0.029620 0.005360 0.247442
v -0.031123 -0.000610 0.247499
v -0.031521 -0.004470 0.247460
v -0.028752 0.008799 0.257850
v -0.027193 0.009507 0.257825
v -0.024876 0.012367 0.257703
v -0.021923 0.017278 0.257421
v -0.018506 0.024061 0.256876
v -0.014816 0.032460 0.255950
v -0.011039 0.042141 0.254535
v -0.007340 0.052707 0.252559
v -0.003851 0.063714 0.250009
v -0.000676 0.074698 0.246950
v 0.002112 0.085207 0.243524
v 0.004463 0.094821 0.239944
v 0.006355 0.103177 0.236471
v 0.007788 0.109976 0.233387
v 0.008781 0.114990 0.230957
v 0.009362 0.118060 0.229403
v 0.009552 0.119094 0.228868
v 0.009178 0.118115 0.229375
v 0.008067 0.115203 0.230851
v 0.006252 0.110438 0.233168
v 0.003784 0.103961 0.236127
v 0.000734 0.095975 0.239484
v -0.002806 0.086751 0.242978
v -0.006716 0.076622 0.246360
v -0.010841 0.065968 0.249424
v -0.014997 0.055202 0.252025
v -0.018972 0.044746 0.254090
v -0.022549 0.035014 0.255613
v -0.025525 0.026388 0.256647
v -0.027734 0.019209 0.257284
v -0.029052 0.013757 0.257633
v -0.029403 0.010243 0.257797
v -0.026914 0.024698 0.267362
v -0.025567 0.025370 0.267299
v -0.023563 0.027991 0.267037
v -0.021005 0.032464 0.266530
v -0.018042 0.038619 0.265708
v -0.014838 0.046220 0.264492
v -0.011554 0.054961 0.262815
v -0.008332 0.064483 0.260642
v -0.005286 0.074389 0.257989
v -0.002508 0.084268 0.254934
v -0.000062 0.093717 0.251614
v 0.002007 0.102365 0.248221
v 0.003677 0.109886 0.244984
v 0.004945 0.116012 0.242143
v 0.005827 0.120534 0.239924
v 0.006344 0.123306 0.238512
v 0.006514 0.124239 0.238027
v 0.006186 0.123351 0.238489
v 0.005212 0.120710 0.239836
v 0.003621 0.116394 0.241960
v 0.001461 0.110533 0.244693
v -0.001208 0.103315 0.247827
v -0.004302 0.094987 0.251137
v -0.007715 0.085849 0.254406
v -0.011313 0.076241 0.257448
v -0.014933 0.066532 0.260126
v -0.018393 0.057102 0.262358
v -0.021505 0.048321 0.264116
v -0.024094 0.040535 0.265423
v -0.026015 0.034055 0.266332
v -0.027163 0.029137 0.266914
v -0.027473 0.025977 0.267240
v -0.024313 0.044564 0.275418
v -0.023170 0.045128 0.275326
v -0.021514 0.047320 0.274958
v -0.019428 0.051056 0.274289
v -0.017032 0.056193 0.273283
v -0.014454 0.062529 0.271903
v -0.011821 0.069807 0.270126
v -0.009241 0.077729 0.267954
v -0.006803 0.085969 0.265425
v -0.004577 0.094187 0.262621
v -0.002612 0.102054 0.259665
v -0.000945 0.109264 0.256715
v 0.000406 0.115544 0.253950
v 0.001435 0.120668 0.251556
v 0.002153 0.124456 0.249703
v 0.002574 0.126781 0.248531
v 0.002713 0.127564 0.248130
v 0.002436 0.126819 0.248512
v 0.001616 0.124604 0.249629
v 0.000280 0.120989 0.251402
v -0.001527 0.116086 0.253703
v -0.003748 0.110058 0.256375
v -0.006310 0.103114 0.259246
v -0.009118 0.095503 0.262145
v -0.012059 0.087508 0.264922
v -0.014998 0.079431 0.267454
v -0.017785 0.071584 0.269660
v -0.020268 0.064273 0.271496
v -0.022309 0.057785 0.272950
v -0.023797 0.052379 0.274039
v -0.024654 0.048273 0.274792
v -0.024832 0.045633 0.275243
v -0.020621 0.069607 0.281007
v -0.019759 0.069989 0.280912
v -0.018571 0.071512 0.280528
v -0.017116 0.074117 0.279852
v -0.015471 0.077702 0.278877
v -0.013724 0.082126 0.277607
v -0.011953 0.087211 0.276052
v -0.010228 0.092750 0.274240
v -0.008600 0.098517 0.272222
v -0.007111 0.104279 0.270067
v -0.005793 0.109806 0.267867
v -0.004670 0.114884 0.265729
v -0.003755 0.119319 0.263767
v -0.003054 0.122948 0.262096
v -0.002563 0.125637 0.260817
v -0.002274 0.127290 0.260015
v -0.002179 0.127847 0.259741
v -0.002384 0.127319 0.260000
v -0.002988 0.125751 0.260762
v -0.003968 0.123193 0.261980
v -0.005284 0.119733 0.263580
v -0.006888 0.115488 0.265467
v -0.008719 0.110609 0.267537
v -0.010705 0.105273 0.269681
v -0.012759 0.099677 0.271799
v -0.014784 0.094030 0.273804
v -0.016674 0.088546 0.275626
v -0.018325 0.083435 0.277216
v -0.019648 0.078896 0.278542
v -0.020573 0.075109 0.279587
v -0.021056 0.072227 0.280345
v -0.021074 0.070368 0.280818
v -0.015718 0.100248 0.282755
v -0.015315 0.100393 0.282703
v -0.014797 0.101006 0.282485
v -0.014188 0.102063 0.282105
v -0.013518 0.103523 0.281572
v -0.012820 0.105331 0.280901
v -0.012122 0.107414 0.280111
v -0.011448 0.109690 0.279228
v -0.010815 0.112067 0.278282
v -0.010236 0.114450 0.277310
v -0.009720 0.116745 0.276352
v -0.009278 0.118861 0.275449
v -0.008915 0.120717 0.274641
v -0.008635 0.122240 0.273966
v -0.008437 0.123373 0.273458
v -0.008321 0.124070 0.273142
v -0.008282 0.124306 0.273035
v -0.008375 0.124085 0.273136
v -0.008647 0.123428 0.273433
v -0.009087 0.122359 0.273913
v -0.009672 0.120915 0.274553
v -0.010376 0.119150 0.275324
v -0.011168 0.117127 0.276191
v -0.012014 0.114921 0.277116
v -0.012873 0.112614 0.278061
v -0.013703 0.110291 0.278991
v -0.014458 0.108039 0.279871
v -0.015096 0.105941 0.280671
v -0.015584 0.104079 0.281367
v -0.015899 0.102524 0.281938
v -0.016027 0.101338 0.282366
v -0.015966 0.100569 0.282641


g blade_back
f 1 2 34 33
f 2 3 35 34
f 3 4 36 35
f 4 5 37 36
f 5 6 38 37
f 6 7 39 38
f 7 8 40 39
f 8 9 41 40
f 9 10 42 41
f 10 11 43 42
f 11 12 44 43
f 12 13 45 44
f 13 14 46 45
f 14 15 47 46
f 15 16 48 47
f 16 17 49 48
f 33 34 66 65
f 34 35 67 66
f 35 36 68 67
f 36 37 69 68
f 37 38 70 69
f 38 39 71 70
f 39 40 72 71
f 40 41 73 72
f 41 42 74 73
f 42 43 75 74
f 43 44 76 75
f 44 45 77 76
f 45 46 78 77
f 46 47 79 78
f 47 48 80 79
f 48 49 81 80
f 65 66 98 97
f 66 67 99 98
f 67 68 100 99
f 68 69 101 100
f 69 70 102 101
f 70 71 103 102
f 71 72 104 103
f 72 73 105 104
f 73 74 106 105
f 74 75 107 106
f 75 76 108 107
f 76 77 109 108
f 77 78 110 109
f 78 79 111 110
f 79 80 112 111
f 80 81 113 112
f 97 98 130 129
f 98 99 131 130
f 99 100 132 131
f 100 101 133 132
f 101 102 134 133
f 102 103 135 134
f 103 104 136 135
f 104 105 137 136
f 105 106 138 137
f 106 107 139 138
f 107 108 140 139
f 108 109 141 140
f 109 110 142 141
f 110 111 143 142
f 111 112 144 143
f 112 113 145 144
f 129 130 162 161
f 130 131 163 162
f 131 132 164 163
f 132 133 165 164
f 133 134 166 165
f 134 135 167 166
f 135 136 168 167
f 136 137 169 168
f 137 138 170 169
f 138 139 171 170
f 139 140 172 171
f 140 141 173 172
f 141 142 174 173
f 142 143 175 174
f 143 144 176 175
f 144 145 177 176
f 161 162 194 193
f 162 163 195 194
f 163 164 196 195
f 164 165 197 196
f 165 166 198 197
f 166 167 199 198
f 167 168 200 199
f 168 169 201 200
f 169 170 202 201
f 170 171 203 202
f 171 172 204 203
f 172 173 205 204
f 173 174 206 205
f 174 175 207 206
f 175 176 208 207
f 176 177 209 208
f 193 194 226 225
f 194 195 227 226
f 195 196 228 227
f 196 197 229 228
f 197 198 230 229
f 198 199 231 230
f 199 200 232 231
f 200 201 233 232
f 201 202 234 233
f 202 203 235 234
f 203 204 236 235
f 204 205 237 236
f 205 206 238 237
f 206 207 239 238
f 207 208 240 239
f 208 209 241 240
f 225 226 258 257
f 226 227 259 258
f 227 228 260 259
f 228 229 261 260
f 229 230 262 261
f 230 231 263 262
f 231 232 264 263
f 232 233 265 264
f 233 234 266 265
f 234 235 267 266
f 235 236 268 267
f 236 237 269 268
f 237 238 270 269
f 238 239 271 270
f 239 240 272 271
f 240 241 273 272
f 257 258 290 289
f 258 259 291 290
f 259 260 292 291
f 260 261 293 292
f 261 262 294 293
f 262 263 295 294
f 263 264 296 295
f 264 265 297 296
f 265 266 298 297
f 266 267 299 298
f 267 268 300 299
f 268 269 301 300
f 269 270 302 301
f 270 271 303 302
f 271 272 304 303
f 272 273 305 304
f 289 290 322 321
f 290 291 323 322
f 291 292 324 323
f 292 293 325 324
f 293 294 326 325
f 294 295 327 326
f 295 296 328 327
f 296 297 329 328
f 297 298 330 329
f 298 299 331 330
f 299 300 332 331
f 300 301 333 332
f 301 302 334 333
f 302 303 335 334
f 303 304 336 335
f 304 305 337 336
f 321 322 354 353
f 322 323 355 354
f 323 324 356 355
f 324 325 357 356
f 325 326 358 357
f 326 327 359 358
f 327 328 360 359
f 328 329 361 360
f 329 330 362 361
f 330 331 363 362
f 331 332 364 363
f 332 333 365 364
f 333 334 366 365
f 334 335 367 366
f 335 336 368 367
f 336 337 369 368
f 353 354 386 385
f 354 355 387 386
f 355 356 388 387
f 356 357 389 388
f 357 358 390 389
f 358 359 391 390
f 359 360 392 391
f 360 361 393 392
f 361 362 394 393
f 362 363 395 394
f 363 364 396 395
f 364 365 397 396
f 365 366 398 397
f 366 367 399 398
f 367 368 400 399
f 368 369 401 400
f 385 386 418 417
f 386 387 419 418
f 387 388 420 419
f 388 389 421 420
f 389 390 422 421
f 390 391 423 422
f 391 392 424 423
f 392 393 425 424
f 393 394 426 425
f 394 395 427 426
f 395 396 428 427
f 396 397 429 428
f 397 398 430 429
f 398 399 431 430
f 399 400 432 431
f 400 401 433 432
f 417 418 450 449
f 418 419 451 450
f 419 420 452 451
f 420 421 453 452
f 421 422 454 453
f 422 423 455 454
f 423 424 456 455
f 424 425 457 456
f 425 426 458 457
f 426 427 459 458
f 427 428 460 459
f 428 429 461 460
f 429 430 462 461
f 430 431 463 462
f 431 432 464 463
f 432 433 465 464
f 449 450 482 481
f 450 451 483 482
f 451 452 484 483
f 452 453 485 484
f 453 454 486 485
f 454 455 487 486
f 455 456 488 487
f 456 457 489 488
f 457 458 490 489
f 458 459 491 490
f 459 460 492 491
f 460 461 493 492
f 461 462 494 493
f 462 463 495 494
f 463 464 496 495
f 464 465 497 496
f 481 482 514 513
f 482 483 515 514
f 483 484 516 515
f 484 485 517 516
f 485 486 518 517
f 486 487 519 518
f 487 488 520 519
f 488 489 521 520
f 489 490 522 521
f 490 491 523 522
f 491 492 524 523
f 492 493 525 524
f 493 494 526 525
f 494 495 527 526
f 495 496 528 527
f 496 497 529 528
f 513 514 546 545
f 514 515 547 546
f 515 516 548 547
f 516 517 549 548
f 517 518 550 549
f 518 519 551 550
f 519 520 552 551
f 520 521 553 552
f 521 522 554 553
f 522 523 555 554
f 523 524 556 555
f 524 525 557 556
f 525 526 558 557
f 526 527 559 558
f 527 528 560 559
f 528 529 561 560
f 545 546 578 577
f 546 547 579 578
f 547 548 580 579
f 548 549 581 580
f 549 550 582 581
f 550 551 583 582
f 551 552 584 583
f 552 553 585 584
f 553 554 586 585
f 554 555 587 586
f 555 556 588 587
f 556 557 589 588
f 557 558 590 589
f 558 559 591 590
f 559 560 592 591
f 560 561 593 592
f 577 578 610 609
f 578 579 611 610
f 579 580 612 611
f 580 581 613 612
f 581 582 614 613
f 582 583 615 614
f 583 584 616 615
f 584 585 617 616
f 585 586 618 617
f 586 587 619 618
f 587 588 620 619
f 588 589 621 620
f 589 590 622 621
f 590 591 623 622
f 591 592 624 623
f 592 593 625 624
f 609 610 642 641
f 610 611 643 642
f 611 612 644 643
f 612 613 645 644
f 613 614 646 645
f 614 615 647 646
f 615 616 648 647
f 616 617 649 648
f 617 618 650 649
f 618 619 651 650
f 619 620 652 651
f 620 621 653 652
f 621 622 654 653
f 622 623 655 654
f 623 624 656 655
f 624 625 657 656

g blade_face
f 17 18 50 49
f 18 19 51 50
f 19 20 52 51
f 20 21 53 52
f 21 22 54 53
f 22 23 55 54
f 23 24 56 55
f 24 25 57 56
f 25 26 58 57
f 26 27 59 58
f 27 28 60 59
f 28 29 61 60
f 29 30 62 61
f 30 31 63 62
f 31 32 64 63
f 32 1 33 64
f 49 50 82 81
f 50 51 83 82
f 51 52 84 83
f 52 53 85 84
f 53 54 86 85
f 54 55 87 86
f 55 56 88 87
f 56 57 89 88
f 57 58 90 89
f 58 59 91 90
f 59 60 92 91
f 60 61 93 92
f 61 62 94 93
f 62 63 95 94
f 63 64 96 95
f 64 33 65 96
f 81 82 114 113
f 82 83 115 114
f 83 84 116 115
f 84 85 117 116
f 85 86 118 117
f 86 87 119 118
f 87 88 120 119
f 88 89 121 120
f 89 90 122 121
f 90 91 123 122
f 91 92 124 123
f 92 93 125 124
f 93 94 126 125
f 94 95 127 126
f 95 96 128 127
f 96 65 97 128
f 113 114 146 145
f 114 115 147 146
f 115 116 148 147
f 116 117 149 148
f 117 118 150 149
f 118 119 151 150
f 119 120 152 151
f 120 121 153 152
f 121 122 154 153
f 122 123 155 154
f 123 124 156 155
f 124 125 157 156
f 125 126 158 157
f 126 127 159 158
f 127 128 160 159
f 128 97 129 160
f 145 146 178 177
f 146 147 179 178
f 147 148 180 179
f 148 149 181 180
f 149 150 182 181
f 150 151 183 182
f 151 152 184 183
f 152 153 185 184
f 153 154 186 185
f 154 155 187 186
f 155 156 188 187
f 156 157 189 188
f 157 158 190 189
f 158 159 191 190
f 159 160 192 191
f 160 129 161 192
f 177 178 210 209
f 178 179 211 210
f 179 180 212 211
f 180 181 213 212
f 181 182 214 213
f 182 183 215 214
f 183 184 216 215
f 184 185 217 216
f 185 186 218 217
f 186 187 219 218
f 187 188 220 219
f 188 189 221 220
f 189 190 222 221
f 190 191 223 222
f 191 192 224 223
f 192 161 193 224
f 209 210 242 241
f 210 211 243 242
f 211 212 244 243
f 212 213 245 244
f 213 214 246 245
f 214 215 247 246
f 215 216 248 247
f 216 217 249 248
f 217 218 250 249
f 218 219 251 250
f 219 220 252 251
f 220 221 253 252
f 221 222 254 253
f 222 223 255 254
f 223 224 256 255
f 224 193 225 256
f 241 242 274 273
f 242 243 275 274
f 243 244 276 275
f 244 245 277 276
f 245 246 278 277
f 246 247 279 278
f 247 248 280 279
f 248 249 281 280
f 249 250 282 281
f 250 251 283 282
f 251 252 284 283
f 252 253 285 284
f 253 254 286 285
f 254 255 287 286
f 255 256 288 287
f 256 225 257 288
f 273 274 306 305
f 274 275 307 306
f 275 276 308 307
f 276 277 309 308
f 277 278 310 309
f 278 279 311 310
f 279 280 312 311
f 280 281 313 312
f 281 282 314 313
f 282 283 315 314
f 283 284 316 315
f 284 285 317 316
f 285 286 318 317
f 286 287 319 318
f 287 288 320 319
f 288 257 289 320
f 305 306 338 337
f 306 307 339 338
f 307 308 340 339
f 308 309 341 340
f 309 310 342 341
f 310 311 343 342
f 311 312 344 343
f 312 313 345 344
f 313 314 346 345
f 314 315 347 346
f 315 316 348 347
f 316 317 349 348
f 317 318 350 349
f 318 319 351 350
f 319 320 352 351
f 320 289 321 352
f 337 338 370 369
f 338 339 371 370
f 339 340 372 371
f 340 341 373 372
f 341 342 374 373
f 342 343 375 374
f 343 344 376 375
f 344 345 377 376
f 345 346 378 377
f 346 347 379 378
f 347 348 380 379
f 348 349 381 380
f 349 350 382 381
f 350 351 383 382
f 351 352 384 383
f 352 321 353 384
f 369 370 402 401
f 370 371 403 402
f 371 372 404 403
f 372 373 405 404
f 373 374 406 405
f 374 375 407 406
f 375 376 408 407
f 376 377 409 408
f 377 378 410 409
f 378 379 411 410
f 379 380 412 411
f 380 381 413 412
f 381 382 414 413
f 382 383 415 414
f 383 384 416 415
f 384 353 385 416
f 401 402 434 433
f 402 403 435 434
f 403 404 436 435
f 404 405 437 436
f 405 406 438 437
f 406 407 439 438
f 407 408 440 439
f 408 409 441 440
f 409 410 442 441
f 410 411 443 442
f 411 412 444 443
f 412 413 445 444
f 413 414 446 445
f 414 415 447 446
f 415 416 448 447
f 416 385 417 448
f 433 434 466 465
f 434 435 467 466
f 435 436 468 467
f 436 437 469 468
f 437 438 470 469
f 438 439 471 470
f 439 440 472 471
f 440 441 473 472
f 441 442 474 473
f 442 443 475 474
f 443 444 476 475
f 444 445 477 476
f 445 446 478 477
f 446 447 479 478
f 447 448 480 479
f 448 417 449 480
f 465 466 498 497
f 466 467 499 498
f 467 468 500 499
f 468 469 501 500
f 469 470 502 501
f 470 471 503 502
f 471 472 504 503
f 472 473 505 504
f 473 474 506 505
f 474 475 507 506
f 475 476 508 507
f 476 477 509 508
f 477 478 510 509
f 478 479 511 510
f 479 480 512 511
f 480 449 481 512
f 497 498 530 529
f 498 499 531 530
f 499 500 532 531
f 500 501 533 532
f 501 502 534 533
f 502 503 535 534
f 503 504 536 535
f 504 505 537 536
f 505 506 538 537
f 506 507 539 538
f 507 508 540 539
f 508 509 541 540
f 509 510 542 541
f 510 511 543 542
f 511 512 544 543
f 512 481 513 544
f 529 530 562 561
f 530 531 563 562
f 531 532 564 563
f 532 533 565 564
f 533 534 566 565
f 534 535 567 566
f 535 536 568 567
f 536 537 569 568
f 537 538 570 569
f 538 539 571 570
f 539 540 572 571
f 540 541 573 572
f 541 542 574 573
f 542 543 575 574
f 543 544 576 575
f 544 513 545 576
f 561 562 594 593
f 562 563 595 594
f 563 564 596 595
f 564 565 597 596
f 565 566 598 597
f 566 567 599 598
f 567 568 600 599
f 568 569 601 600
f 569 570 602 601
f 570 571 603 602
f 571 572 604 603
f 572 573 605 604
f 573 574 606 605
f 574 575 607 606
f 575 576 608 607
f 576 545 577 608
f 593 594 626 625
f 594 595 627 626
f 595 596 628 627
f 596 597 629 628
f 597 598 630 629
f 598 599 631 630
f 599 600 632 631
f 600 601 633 632
f 601 602 634 633
f 602 603 635 634
f 603 604 636 635
f 604 605 637 636
f 605 606 638 637
f 606 607 639 638
f 607 608 640 639
f 608 577 609 640
f 625 626 658 657
f 626 627 659 658
f 627 628 660 659
f 628 629 661 660
f 629 630 662 661
f 630 631 663 662
f 631 632 664 663
f 632 633 665 664
f 633 634 666 665
f 634 635 667 666
f 635 636 668 667
f 636 637 669 668
f 637 638 670 669
f 638 639 671 670
f 639 640 672 671
f 640 609 641 672

g blade_root
f 1 3 2
f 1 4 3
f 1 5 4
f 1 6 5
f 1 7 6
f 1 8 7
f 1 9 8
f 1 10 9
f 1 11 10
f 1 12 11
f 1 13 12
f 1 14 13
f 1 15 14
f 1 16 15
f 1 17 16
f 1 18 17
f 1 19 18
f 1 20 19
f 1 21 20
f 1 22 21
f 1 23 22
f 1 24 23
f 1 25 24
f 1 26 25
f 1 27 26
f 1 28 27
f 1 29 28
f 1 30 29
f 1 31 30
f 1 32 31

g blade_tip
f 641 642 643
f 641 643 644
f 641 644 645
f 641 645 646
f 641 646 647
f 641 647 648
f 641 648 649
f 641 649 650
f 641 650 651
f 641 651 652
f 641 652 653
f 641 653 654
f 641 654 655
f 641 655 656
f 641 656 657
f 641 657 658
f 641 658 659
f 641 659 660
f 641 660 661
f 641 661 662
f 641 662 663
f 641 663 664
f 641 664 665
f 641 665 666
f 641 666 667
f 641 667 668
f 641 668 669
f 641 669 670
f 641 670 671
f 641 671 672
