# hull-ring.obj — one frame bay of a 1.0 m diameter pressure hull.
#
# GENERATED FILE. Do not hand-edit: regenerate with
#   python3 examples/am-submarine-pressure-hull/generate-geometry.py
# which is deterministic and reproduces this file byte-for-byte.
#
# Outer diameter 1.000 m, wall 12 mm (R 0.500 / 0.488 m), bay length 0.500 m.
# Cylinder axis is +Z (the manufacturing frame).
# 64 circumferential facets x 6 axial rows per surface.
#
# 896 vertices, 896 faces (1792 Tri3 cells after obj-reader fan-triangulation).
# Faceted volume 18593.5 cm^3 vs exact annulus 18623.4 cm^3 (0.16% low,
# which is the 64-gon inscribed-polygon deficit — see README.md).
# Bounding box (-0.5000, -0.5000, 0.0000) .. (0.5000, 0.5000, 0.5000) m.
#
# Vertex layout: outer grid first, (N_AXIAL+1) rows of N_THETA nodes
# by increasing z then increasing theta, then the inner grid the same
# way. Surfaces are named with `g` groups, which obj-reader ignores:
#   shell_outer     — wetted surface, sees the hydrostatic load
#   shell_inner     — dry bore
#   frame_land_aft  — z = 0 annulus, the ring-frame seat
#   frame_land_fwd  — z = L annulus, the next ring-frame seat
#
# They are deliberately NOT `usemtl` groups. obj-reader maps usemtl
# names to per-cell tags, and every AM capability reads a non-negative
# cell tag as a LAYER INDEX (contract § 2.2 rule 1) — a usemtl-tagged
# OBJ would be simulated as a four-layer part. Untagged cells (tag -1)
# take the documented fallback instead: bin the cell centroid along
# build_direction by layer_height.
#
# Faces are quads wound CCW seen from outside the solid wall, so
# normals point out of the metal (enclosed volume above is positive).

v 0.500000 0.000000 0.000000
v 0.497592 0.049009 0.000000
v 0.490393 0.097545 0.000000
v 0.478470 0.145142 0.000000
v 0.461940 0.191342 0.000000
v 0.440961 0.235698 0.000000
v 0.415735 0.277785 0.000000
v 0.386505 0.317197 0.000000
v 0.353553 0.353553 0.000000
v 0.317197 0.386505 0.000000
v 0.277785 0.415735 0.000000
v 0.235698 0.440961 0.000000
v 0.191342 0.461940 0.000000
v 0.145142 0.478470 0.000000
v 0.097545 0.490393 0.000000
v 0.049009 0.497592 0.000000
v 0.000000 0.500000 0.000000
v -0.049009 0.497592 0.000000
v -0.097545 0.490393 0.000000
v -0.145142 0.478470 0.000000
v -0.191342 0.461940 0.000000
v -0.235698 0.440961 0.000000
v -0.277785 0.415735 0.000000
v -0.317197 0.386505 0.000000
v -0.353553 0.353553 0.000000
v -0.386505 0.317197 0.000000
v -0.415735 0.277785 0.000000
v -0.440961 0.235698 0.000000
v -0.461940 0.191342 0.000000
v -0.478470 0.145142 0.000000
v -0.490393 0.097545 0.000000
v -0.497592 0.049009 0.000000
v -0.500000 0.000000 0.000000
v -0.497592 -0.049009 0.000000
v -0.490393 -0.097545 0.000000
v -0.478470 -0.145142 0.000000
v -0.461940 -0.191342 0.000000
v -0.440961 -0.235698 0.000000
v -0.415735 -0.277785 0.000000
v -0.386505 -0.317197 0.000000
v -0.353553 -0.353553 0.000000
v -0.317197 -0.386505 0.000000
v -0.277785 -0.415735 0.000000
v -0.235698 -0.440961 0.000000
v -0.191342 -0.461940 0.000000
v -0.145142 -0.478470 0.000000
v -0.097545 -0.490393 0.000000
v -0.049009 -0.497592 0.000000
v 0.000000 -0.500000 0.000000
v 0.049009 -0.497592 0.000000
v 0.097545 -0.490393 0.000000
v 0.145142 -0.478470 0.000000
v 0.191342 -0.461940 0.000000
v 0.235698 -0.440961 0.000000
v 0.277785 -0.415735 0.000000
v 0.317197 -0.386505 0.000000
v 0.353553 -0.353553 0.000000
v 0.386505 -0.317197 0.000000
v 0.415735 -0.277785 0.000000
v 0.440961 -0.235698 0.000000
v 0.461940 -0.191342 0.000000
v 0.478470 -0.145142 0.000000
v 0.490393 -0.097545 0.000000
v 0.497592 -0.049009 0.000000
v 0.500000 0.000000 0.083333
v 0.497592 0.049009 0.083333
v 0.490393 0.097545 0.083333
v 0.478470 0.145142 0.083333
v 0.461940 0.191342 0.083333
v 0.440961 0.235698 0.083333
v 0.415735 0.277785 0.083333
v 0.386505 0.317197 0.083333
v 0.353553 0.353553 0.083333
v 0.317197 0.386505 0.083333
v 0.277785 0.415735 0.083333
v 0.235698 0.440961 0.083333
v 0.191342 0.461940 0.083333
v 0.145142 0.478470 0.083333
v 0.097545 0.490393 0.083333
v 0.049009 0.497592 0.083333
v 0.000000 0.500000 0.083333
v -0.049009 0.497592 0.083333
v -0.097545 0.490393 0.083333
v -0.145142 0.478470 0.083333
v -0.191342 0.461940 0.083333
v -0.235698 0.440961 0.083333
v -0.277785 0.415735 0.083333
v -0.317197 0.386505 0.083333
v -0.353553 0.353553 0.083333
v -0.386505 0.317197 0.083333
v -0.415735 0.277785 0.083333
v -0.440961 0.235698 0.083333
v -0.461940 0.191342 0.083333
v -0.478470 0.145142 0.083333
v -0.490393 0.097545 0.083333
v -0.497592 0.049009 0.083333
v -0.500000 0.000000 0.083333
v -0.497592 -0.049009 0.083333
v -0.490393 -0.097545 0.083333
v -0.478470 -0.145142 0.083333
v -0.461940 -0.191342 0.083333
v -0.440961 -0.235698 0.083333
v -0.415735 -0.277785 0.083333
v -0.386505 -0.317197 0.083333
v -0.353553 -0.353553 0.083333
v -0.317197 -0.386505 0.083333
v -0.277785 -0.415735 0.083333
v -0.235698 -0.440961 0.083333
v -0.191342 -0.461940 0.083333
v -0.145142 -0.478470 0.083333
v -0.097545 -0.490393 0.083333
v -0.049009 -0.497592 0.083333
v 0.000000 -0.500000 0.083333
v 0.049009 -0.497592 0.083333
v 0.097545 -0.490393 0.083333
v 0.145142 -0.478470 0.083333
v 0.191342 -0.461940 0.083333
v 0.235698 -0.440961 0.083333
v 0.277785 -0.415735 0.083333
v 0.317197 -0.386505 0.083333
v 0.353553 -0.353553 0.083333
v 0.386505 -0.317197 0.083333
v 0.415735 -0.277785 0.083333
v 0.440961 -0.235698 0.083333
v 0.461940 -0.191342 0.083333
v 0.478470 -0.145142 0.083333
v 0.490393 -0.097545 0.083333
v 0.497592 -0.049009 0.083333
v 0.500000 0.000000 0.166667
v 0.497592 0.049009 0.166667
v 0.490393 0.097545 0.166667
v 0.478470 0.145142 0.166667
v 0.461940 0.191342 0.166667
v 0.440961 0.235698 0.166667
v 0.415735 0.277785 0.166667
v 0.386505 0.317197 0.166667
v 0.353553 0.353553 0.166667
v 0.317197 0.386505 0.166667
v 0.277785 0.415735 0.166667
v 0.235698 0.440961 0.166667
v 0.191342 0.461940 0.166667
v 0.145142 0.478470 0.166667
v 0.097545 0.490393 0.166667
v 0.049009 0.497592 0.166667
v 0.000000 0.500000 0.166667
v -0.049009 0.497592 0.166667
v -0.097545 0.490393 0.166667
v -0.145142 0.478470 0.166667
v -0.191342 0.461940 0.166667
v -0.235698 0.440961 0.166667
v -0.277785 0.415735 0.166667
v -0.317197 0.386505 0.166667
v -0.353553 0.353553 0.166667
v -0.386505 0.317197 0.166667
v -0.415735 0.277785 0.166667
v -0.440961 0.235698 0.166667
v -0.461940 0.191342 0.166667
v -0.478470 0.145142 0.166667
v -0.490393 0.097545 0.166667
v -0.497592 0.049009 0.166667
v -0.500000 0.000000 0.166667
v -0.497592 -0.049009 0.166667
v -0.490393 -0.097545 0.166667
v -0.478470 -0.145142 0.166667
v -0.461940 -0.191342 0.166667
v -0.440961 -0.235698 0.166667
v -0.415735 -0.277785 0.166667
v -0.386505 -0.317197 0.166667
v -0.353553 -0.353553 0.166667
v -0.317197 -0.386505 0.166667
v -0.277785 -0.415735 0.166667
v -0.235698 -0.440961 0.166667
v -0.191342 -0.461940 0.166667
v -0.145142 -0.478470 0.166667
v -0.097545 -0.490393 0.166667
v -0.049009 -0.497592 0.166667
v 0.000000 -0.500000 0.166667
v 0.049009 -0.497592 0.166667
v 0.097545 -0.490393 0.166667
v 0.145142 -0.478470 0.166667
v 0.191342 -0.461940 0.166667
v 0.235698 -0.440961 0.166667
v 0.277785 -0.415735 0.166667
v 0.317197 -0.386505 0.166667
v 0.353553 -0.353553 0.166667
v 0.386505 -0.317197 0.166667
v 0.415735 -0.277785 0.166667
v 0.440961 -0.235698 0.166667
v 0.461940 -0.191342 0.166667
v 0.478470 -0.145142 0.166667
v 0.490393 -0.097545 0.166667
v 0.497592 -0.049009 0.166667
v 0.500000 0.000000 0.250000
v 0.497592 0.049009 0.250000
v 0.490393 0.097545 0.250000
v 0.478470 0.145142 0.250000
v 0.461940 0.191342 0.250000
v 0.440961 0.235698 0.250000
v 0.415735 0.277785 0.250000
v 0.386505 0.317197 0.250000
v 0.353553 0.353553 0.250000
v 0.317197 0.386505 0.250000
v 0.277785 0.415735 0.250000
v 0.235698 0.440961 0.250000
v 0.191342 0.461940 0.250000
v 0.145142 0.478470 0.250000
v 0.097545 0.490393 0.250000
v 0.049009 0.497592 0.250000
v 0.000000 0.500000 0.250000
v -0.049009 0.497592 0.250000
v -0.097545 0.490393 0.250000
v -0.145142 0.478470 0.250000
v -0.191342 0.461940 0.250000
v -0.235698 0.440961 0.250000
v -0.277785 0.415735 0.250000
v -0.317197 0.386505 0.250000
v -0.353553 0.353553 0.250000
v -0.386505 0.317197 0.250000
v -0.415735 0.277785 0.250000
v -0.440961 0.235698 0.250000
v -0.461940 0.191342 0.250000
v -0.478470 0.145142 0.250000
v -0.490393 0.097545 0.250000
v -0.497592 0.049009 0.250000
v -0.500000 0.000000 0.250000
v -0.497592 -0.049009 0.250000
v -0.490393 -0.097545 0.250000
v -0.478470 -0.145142 0.250000
v -0.461940 -0.191342 0.250000
v -0.440961 -0.235698 0.250000
v -0.415735 -0.277785 0.250000
v -0.386505 -0.317197 0.250000
v -0.353553 -0.353553 0.250000
v -0.317197 -0.386505 0.250000
v -0.277785 -0.415735 0.250000
v -0.235698 -0.440961 0.250000
v -0.191342 -0.461940 0.250000
v -0.145142 -0.478470 0.250000
v -0.097545 -0.490393 0.250000
v -0.049009 -0.497592 0.250000
v 0.000000 -0.500000 0.250000
v 0.049009 -0.497592 0.250000
v 0.097545 -0.490393 0.250000
v 0.145142 -0.478470 0.250000
v 0.191342 -0.461940 0.250000
v 0.235698 -0.440961 0.250000
v 0.277785 -0.415735 0.250000
v 0.317197 -0.386505 0.250000
v 0.353553 -0.353553 0.250000
v 0.386505 -0.317197 0.250000
v 0.415735 -0.277785 0.250000
v 0.440961 -0.235698 0.250000
v 0.461940 -0.191342 0.250000
v 0.478470 -0.145142 0.250000
v 0.490393 -0.097545 0.250000
v 0.497592 -0.049009 0.250000
v 0.500000 0.000000 0.333333
v 0.497592 0.049009 0.333333
v 0.490393 0.097545 0.333333
v 0.478470 0.145142 0.333333
v 0.461940 0.191342 0.333333
v 0.440961 0.235698 0.333333
v 0.415735 0.277785 0.333333
v 0.386505 0.317197 0.333333
v 0.353553 0.353553 0.333333
v 0.317197 0.386505 0.333333
v 0.277785 0.415735 0.333333
v 0.235698 0.440961 0.333333
v 0.191342 0.461940 0.333333
v 0.145142 0.478470 0.333333
v 0.097545 0.490393 0.333333
v 0.049009 0.497592 0.333333
v 0.000000 0.500000 0.333333
v -0.049009 0.497592 0.333333
v -0.097545 0.490393 0.333333
v -0.145142 0.478470 0.333333
v -0.191342 0.461940 0.333333
v -0.235698 0.440961 0.333333
v -0.277785 0.415735 0.333333
v -0.317197 0.386505 0.333333
v -0.353553 0.353553 0.333333
v -0.386505 0.317197 0.333333
v -0.415735 0.277785 0.333333
v -0.440961 0.235698 0.333333
v -0.461940 0.191342 0.333333
v -0.478470 0.145142 0.333333
v -0.490393 0.097545 0.333333
v -0.497592 0.049009 0.333333
v -0.500000 0.000000 0.333333
v -0.497592 -0.049009 0.333333
v -0.490393 -0.097545 0.333333
v -0.478470 -0.145142 0.333333
v -0.461940 -0.191342 0.333333
v -0.440961 -0.235698 0.333333
v -0.415735 -0.277785 0.333333
v -0.386505 -0.317197 0.333333
v -0.353553 -0.353553 0.333333
v -0.317197 -0.386505 0.333333
v -0.277785 -0.415735 0.333333
v -0.235698 -0.440961 0.333333
v -0.191342 -0.461940 0.333333
v -0.145142 -0.478470 0.333333
v -0.097545 -0.490393 0.333333
v -0.049009 -0.497592 0.333333
v 0.000000 -0.500000 0.333333
v 0.049009 -0.497592 0.333333
v 0.097545 -0.490393 0.333333
v 0.145142 -0.478470 0.333333
v 0.191342 -0.461940 0.333333
v 0.235698 -0.440961 0.333333
v 0.277785 -0.415735 0.333333
v 0.317197 -0.386505 0.333333
v 0.353553 -0.353553 0.333333
v 0.386505 -0.317197 0.333333
v 0.415735 -0.277785 0.333333
v 0.440961 -0.235698 0.333333
v 0.461940 -0.191342 0.333333
v 0.478470 -0.145142 0.333333
v 0.490393 -0.097545 0.333333
v 0.497592 -0.049009 0.333333
v 0.500000 0.000000 0.416667
v 0.497592 0.049009 0.416667
v 0.490393 0.097545 0.416667
v 0.478470 0.145142 0.416667
v 0.461940 0.191342 0.416667
v 0.440961 0.235698 0.416667
v 0.415735 0.277785 0.416667
v 0.386505 0.317197 0.416667
v 0.353553 0.353553 0.416667
v 0.317197 0.386505 0.416667
v 0.277785 0.415735 0.416667
v 0.235698 0.440961 0.416667
v 0.191342 0.461940 0.416667
v 0.145142 0.478470 0.416667
v 0.097545 0.490393 0.416667
v 0.049009 0.497592 0.416667
v 0.000000 0.500000 0.416667
v -0.049009 0.497592 0.416667
v -0.097545 0.490393 0.416667
v -0.145142 0.478470 0.416667
v -0.191342 0.461940 0.416667
v -0.235698 0.440961 0.416667
v -0.277785 0.415735 0.416667
v -0.317197 0.386505 0.416667
v -0.353553 0.353553 0.416667
v -0.386505 0.317197 0.416667
v -0.415735 0.277785 0.416667
v -0.440961 0.235698 0.416667
v -0.461940 0.191342 0.416667
v -0.478470 0.145142 0.416667
v -0.490393 0.097545 0.416667
v -0.497592 0.049009 0.416667
v -0.500000 0.000000 0.416667
v -0.497592 -0.049009 0.416667
v -0.490393 -0.097545 0.416667
v -0.478470 -0.145142 0.416667
v -0.461940 -0.191342 0.416667
v -0.440961 -0.235698 0.416667
v -0.415735 -0.277785 0.416667
v -0.386505 -0.317197 0.416667
v -0.353553 -0.353553 0.416667
v -0.317197 -0.386505 0.416667
v -0.277785 -0.415735 0.416667
v -0.235698 -0.440961 0.416667
v -0.191342 -0.461940 0.416667
v -0.145142 -0.478470 0.416667
v -0.097545 -0.490393 0.416667
v -0.049009 -0.497592 0.416667
v 0.000000 -0.500000 0.416667
v 0.049009 -0.497592 0.416667
v 0.097545 -0.490393 0.416667
v 0.145142 -0.478470 0.416667
v 0.191342 -0.461940 0.416667
v 0.235698 -0.440961 0.416667
v 0.277785 -0.415735 0.416667
v 0.317197 -0.386505 0.416667
v 0.353553 -0.353553 0.416667
v 0.386505 -0.317197 0.416667
v 0.415735 -0.277785 0.416667
v 0.440961 -0.235698 0.416667
v 0.461940 -0.191342 0.416667
v 0.478470 -0.145142 0.416667
v 0.490393 -0.097545 0.416667
v 0.497592 -0.049009 0.416667
v 0.500000 0.000000 0.500000
v 0.497592 0.049009 0.500000
v 0.490393 0.097545 0.500000
v 0.478470 0.145142 0.500000
v 0.461940 0.191342 0.500000
v 0.440961 0.235698 0.500000
v 0.415735 0.277785 0.500000
v 0.386505 0.317197 0.500000
v 0.353553 0.353553 0.500000
v 0.317197 0.386505 0.500000
v 0.277785 0.415735 0.500000
v 0.235698 0.440961 0.500000
v 0.191342 0.461940 0.500000
v 0.145142 0.478470 0.500000
v 0.097545 0.490393 0.500000
v 0.049009 0.497592 0.500000
v 0.000000 0.500000 0.500000
v -0.049009 0.497592 0.500000
v -0.097545 0.490393 0.500000
v -0.145142 0.478470 0.500000
v -0.191342 0.461940 0.500000
v -0.235698 0.440961 0.500000
v -0.277785 0.415735 0.500000
v -0.317197 0.386505 0.500000
v -0.353553 0.353553 0.500000
v -0.386505 0.317197 0.500000
v -0.415735 0.277785 0.500000
v -0.440961 0.235698 0.500000
v -0.461940 0.191342 0.500000
v -0.478470 0.145142 0.500000
v -0.490393 0.097545 0.500000
v -0.497592 0.049009 0.500000
v -0.500000 0.000000 0.500000
v -0.497592 -0.049009 0.500000
v -0.490393 -0.097545 0.500000
v -0.478470 -0.145142 0.500000
v -0.461940 -0.191342 0.500000
v -0.440961 -0.235698 0.500000
v -0.415735 -0.277785 0.500000
v -0.386505 -0.317197 0.500000
v -0.353553 -0.353553 0.500000
v -0.317197 -0.386505 0.500000
v -0.277785 -0.415735 0.500000
v -0.235698 -0.440961 0.500000
v -0.191342 -0.461940 0.500000
v -0.145142 -0.478470 0.500000
v -0.097545 -0.490393 0.500000
v -0.049009 -0.497592 0.500000
v 0.000000 -0.500000 0.500000
v 0.049009 -0.497592 0.500000
v 0.097545 -0.490393 0.500000
v 0.145142 -0.478470 0.500000
v 0.191342 -0.461940 0.500000
v 0.235698 -0.440961 0.500000
v 0.277785 -0.415735 0.500000
v 0.317197 -0.386505 0.500000
v 0.353553 -0.353553 0.500000
v 0.386505 -0.317197 0.500000
v 0.415735 -0.277785 0.500000
v 0.440961 -0.235698 0.500000
v 0.461940 -0.191342 0.500000
v 0.478470 -0.145142 0.500000
v 0.490393 -0.097545 0.500000
v 0.497592 -0.049009 0.500000
v 0.488000 0.000000 0.000000
v 0.485650 0.047832 0.000000
v 0.478623 0.095204 0.000000
v 0.466987 0.141659 0.000000
v 0.450853 0.186750 0.000000
v 0.430378 0.230042 0.000000
v 0.405757 0.271118 0.000000
v 0.377229 0.309584 0.000000
v 0.345068 0.345068 0.000000
v 0.309584 0.377229 0.000000
v 0.271118 0.405757 0.000000
v 0.230042 0.430378 0.000000
v 0.186750 0.450853 0.000000
v 0.141659 0.466987 0.000000
v 0.095204 0.478623 0.000000
v 0.047832 0.485650 0.000000
v 0.000000 0.488000 0.000000
v -0.047832 0.485650 0.000000
v -0.095204 0.478623 0.000000
v -0.141659 0.466987 0.000000
v -0.186750 0.450853 0.000000
v -0.230042 0.430378 0.000000
v -0.271118 0.405757 0.000000
v -0.309584 0.377229 0.000000
v -0.345068 0.345068 0.000000
v -0.377229 0.309584 0.000000
v -0.405757 0.271118 0.000000
v -0.430378 0.230042 0.000000
v -0.450853 0.186750 0.000000
v -0.466987 0.141659 0.000000
v -0.478623 0.095204 0.000000
v -0.485650 0.047832 0.000000
v -0.488000 0.000000 0.000000
v -0.485650 -0.047832 0.000000
v -0.478623 -0.095204 0.000000
v -0.466987 -0.141659 0.000000
v -0.450853 -0.186750 0.000000
v -0.430378 -0.230042 0.000000
v -0.405757 -0.271118 0.000000
v -0.377229 -0.309584 0.000000
v -0.345068 -0.345068 0.000000
v -0.309584 -0.377229 0.000000
v -0.271118 -0.405757 0.000000
v -0.230042 -0.430378 0.000000
v -0.186750 -0.450853 0.000000
v -0.141659 -0.466987 0.000000
v -0.095204 -0.478623 0.000000
v -0.047832 -0.485650 0.000000
v 0.000000 -0.488000 0.000000
v 0.047832 -0.485650 0.000000
v 0.095204 -0.478623 0.000000
v 0.141659 -0.466987 0.000000
v 0.186750 -0.450853 0.000000
v 0.230042 -0.430378 0.000000
v 0.271118 -0.405757 0.000000
v 0.309584 -0.377229 0.000000
v 0.345068 -0.345068 0.000000
v 0.377229 -0.309584 0.000000
v 0.405757 -0.271118 0.000000
v 0.430378 -0.230042 0.000000
v 0.450853 -0.186750 0.000000
v 0.466987 -0.141659 0.000000
v 0.478623 -0.095204 0.000000
v 0.485650 -0.047832 0.000000
v 0.488000 0.000000 0.083333
v 0.485650 0.047832 0.083333
v 0.478623 0.095204 0.083333
v 0.466987 0.141659 0.083333
v 0.450853 0.186750 0.083333
v 0.430378 0.230042 0.083333
v 0.405757 0.271118 0.083333
v 0.377229 0.309584 0.083333
v 0.345068 0.345068 0.083333
v 0.309584 0.377229 0.083333
v 0.271118 0.405757 0.083333
v 0.230042 0.430378 0.083333
v 0.186750 0.450853 0.083333
v 0.141659 0.466987 0.083333
v 0.095204 0.478623 0.083333
v 0.047832 0.485650 0.083333
v 0.000000 0.488000 0.083333
v -0.047832 0.485650 0.083333
v -0.095204 0.478623 0.083333
v -0.141659 0.466987 0.083333
v -0.186750 0.450853 0.083333
v -0.230042 0.430378 0.083333
v -0.271118 0.405757 0.083333
v -0.309584 0.377229 0.083333
v -0.345068 0.345068 0.083333
v -0.377229 0.309584 0.083333
v -0.405757 0.271118 0.083333
v -0.430378 0.230042 0.083333
v -0.450853 0.186750 0.083333
v -0.466987 0.141659 0.083333
v -0.478623 0.095204 0.083333
v -0.485650 0.047832 0.083333
v -0.488000 0.000000 0.083333
v -0.485650 -0.047832 0.083333
v -0.478623 -0.095204 0.083333
v -0.466987 -0.141659 0.083333
v -0.450853 -0.186750 0.083333
v -0.430378 -0.230042 0.083333
v -0.405757 -0.271118 0.083333
v -0.377229 -0.309584 0.083333
v -0.345068 -0.345068 0.083333
v -0.309584 -0.377229 0.083333
v -0.271118 -0.405757 0.083333
v -0.230042 -0.430378 0.083333
v -0.186750 -0.450853 0.083333
v -0.141659 -0.466987 0.083333
v -0.095204 -0.478623 0.083333
v -0.047832 -0.485650 0.083333
v 0.000000 -0.488000 0.083333
v 0.047832 -0.485650 0.083333
v 0.095204 -0.478623 0.083333
v 0.141659 -0.466987 0.083333
v 0.186750 -0.450853 0.083333
v 0.230042 -0.430378 0.083333
v 0.271118 -0.405757 0.083333
v 0.309584 -0.377229 0.083333
v 0.345068 -0.345068 0.083333
v 0.377229 -0.309584 0.083333
v 0.405757 -0.271118 0.083333
v 0.430378 -0.230042 0.083333
v 0.450853 -0.186750 0.083333
v 0.466987 -0.141659 0.083333
v 0.478623 -0.095204 0.083333
v 0.485650 -0.047832 0.083333
v 0.488000 0.000000 0.166667
v 0.485650 0.047832 0.166667
v 0.478623 0.095204 0.166667
v 0.466987 0.141659 0.166667
v 0.450853 0.186750 0.166667
v 0.430378 0.230042 0.166667
v 0.405757 0.271118 0.166667
v 0.377229 0.309584 0.166667
v 0.345068 0.345068 0.166667
v 0.309584 0.377229 0.166667
v 0.271118 0.405757 0.166667
v 0.230042 0.430378 0.166667
v 0.186750 0.450853 0.166667
v 0.141659 0.466987 0.166667
v 0.095204 0.478623 0.166667
v 0.047832 0.485650 0.166667
v 0.000000 0.488000 0.166667
v -0.047832 0.485650 0.166667
v -0.095204 0.478623 0.166667
v -0.141659 0.466987 0.166667
v -0.186750 0.450853 0.166667
v -0.230042 0.430378 0.166667
v -0.271118 0.405757 0.166667
v -0.309584 0.377229 0.166667
v -0.345068 0.345068 0.166667
v -0.377229 0.309584 0.166667
v -0.405757 0.271118 0.166667
v -0.430378 0.230042 0.166667
v -0.450853 0.186750 0.166667
v -0.466987 0.141659 0.166667
v -0.478623 0.095204 0.166667
v -0.485650 0.047832 0.166667
v -0.488000 0.000000 0.166667
v -0.485650 -0.047832 0.166667
v -0.478623 -0.095204 0.166667
v -0.466987 -0.141659 0.166667
v -0.450853 -0.186750 0.166667
v -0.430378 -0.230042 0.166667
v -0.405757 -0.271118 0.166667
v -0.377229 -0.309584 0.166667
v -0.345068 -0.345068 0.166667
v -0.309584 -0.377229 0.166667
v -0.271118 -0.405757 0.166667
v -0.230042 -0.430378 0.166667
v -0.186750 -0.450853 0.166667
v -0.141659 -0.466987 0.166667
v -0.095204 -0.478623 0.166667
v -0.047832 -0.485650 0.166667
v 0.000000 -0.488000 0.166667
v 0.047832 -0.485650 0.166667
v 0.095204 -0.478623 0.166667
v 0.141659 -0.466987 0.166667
v 0.186750 -0.450853 0.166667
v 0.230042 -0.430378 0.166667
v 0.271118 -0.405757 0.166667
v 0.309584 -0.377229 0.166667
v 0.345068 -0.345068 0.166667
v 0.377229 -0.309584 0.166667
v 0.405757 -0.271118 0.166667
v 0.430378 -0.230042 0.166667
v 0.450853 -0.186750 0.166667
v 0.466987 -0.141659 0.166667
v 0.478623 -0.095204 0.166667
v 0.485650 -0.047832 0.166667
v 0.488000 0.000000 0.250000
v 0.485650 0.047832 0.250000
v 0.478623 0.095204 0.250000
v 0.466987 0.141659 0.250000
v 0.450853 0.186750 0.250000
v 0.430378 0.230042 0.250000
v 0.405757 0.271118 0.250000
v 0.377229 0.309584 0.250000
v 0.345068 0.345068 0.250000
v 0.309584 0.377229 0.250000
v 0.271118 0.405757 0.250000
v 0.230042 0.430378 0.250000
v 0.186750 0.450853 0.250000
v 0.141659 0.466987 0.250000
v 0.095204 0.478623 0.250000
v 0.047832 0.485650 0.250000
v 0.000000 0.488000 0.250000
v -0.047832 0.485650 0.250000
v -0.095204 0.478623 0.250000
v -0.141659 0.466987 0.250000
v -0.186750 0.450853 0.250000
v -0.230042 0.430378 0.250000
v -0.271118 0.405757 0.250000
v -0.309584 0.377229 0.250000
v -0.345068 0.345068 0.250000
v -0.377229 0.309584 0.250000
v -0.405757 0.271118 0.250000
v -0.430378 0.230042 0.250000
v -0.450853 0.186750 0.250000
v -0.466987 0.141659 0.250000
v -0.478623 0.095204 0.250000
v -0.485650 0.047832 0.250000
v -0.488000 0.000000 0.250000
v -0.485650 -0.047832 0.250000
v -0.478623 -0.095204 0.250000
v -0.466987 -0.141659 0.250000
v -0.450853 -0.186750 0.250000
v -0.430378 -0.230042 0.250000
v -0.405757 -0.271118 0.250000
v -0.377229 -0.309584 0.250000
v -0.345068 -0.345068 0.250000
v -0.309584 -0.377229 0.250000
v -0.271118 -0.405757 0.250000
v -0.230042 -0.430378 0.250000
v -0.186750 -0.450853 0.250000
v -0.141659 -0.466987 0.250000
v -0.095204 -0.478623 0.250000
v -0.047832 -0.485650 0.250000
v 0.000000 -0.488000 0.250000
v 0.047832 -0.485650 0.250000
v 0.095204 -0.478623 0.250000
v 0.141659 -0.466987 0.250000
v 0.186750 -0.450853 0.250000
v 0.230042 -0.430378 0.250000
v 0.271118 -0.405757 0.250000
v 0.309584 -0.377229 0.250000
v 0.345068 -0.345068 0.250000
v 0.377229 -0.309584 0.250000
v 0.405757 -0.271118 0.250000
v 0.430378 -0.230042 0.250000
v 0.450853 -0.186750 0.250000
v 0.466987 -0.141659 0.250000
v 0.478623 -0.095204 0.250000
v 0.485650 -0.047832 0.250000
v 0.488000 0.000000 0.333333
v 0.485650 0.047832 0.333333
v 0.478623 0.095204 0.333333
v 0.466987 0.141659 0.333333
v 0.450853 0.186750 0.333333
v 0.430378 0.230042 0.333333
v 0.405757 0.271118 0.333333
v 0.377229 0.309584 0.333333
v 0.345068 0.345068 0.333333
v 0.309584 0.377229 0.333333
v 0.271118 0.405757 0.333333
v 0.230042 0.430378 0.333333
v 0.186750 0.450853 0.333333
v 0.141659 0.466987 0.333333
v 0.095204 0.478623 0.333333
v 0.047832 0.485650 0.333333
v 0.000000 0.488000 0.333333
v -0.047832 0.485650 0.333333
v -0.095204 0.478623 0.333333
v -0.141659 0.466987 0.333333
v -0.186750 0.450853 0.333333
v -0.230042 0.430378 0.333333
v -0.271118 0.405757 0.333333
v -0.309584 0.377229 0.333333
v -0.345068 0.345068 0.333333
v -0.377229 0.309584 0.333333
v -0.405757 0.271118 0.333333
v -0.430378 0.230042 0.333333
v -0.450853 0.186750 0.333333
v -0.466987 0.141659 0.333333
v -0.478623 0.095204 0.333333
v -0.485650 0.047832 0.333333
v -0.488000 0.000000 0.333333
v -0.485650 -0.047832 0.333333
v -0.478623 -0.095204 0.333333
v -0.466987 -0.141659 0.333333
v -0.450853 -0.186750 0.333333
v -0.430378 -0.230042 0.333333
v -0.405757 -0.271118 0.333333
v -0.377229 -0.309584 0.333333
v -0.345068 -0.345068 0.333333
v -0.309584 -0.377229 0.333333
v -0.271118 -0.405757 0.333333
v -0.230042 -0.430378 0.333333
v -0.186750 -0.450853 0.333333
v -0.141659 -0.466987 0.333333
v -0.095204 -0.478623 0.333333
v -0.047832 -0.485650 0.333333
v 0.000000 -0.488000 0.333333
v 0.047832 -0.485650 0.333333
v 0.095204 -0.478623 0.333333
v 0.141659 -0.466987 0.333333
v 0.186750 -0.450853 0.333333
v 0.230042 -0.430378 0.333333
v 0.271118 -0.405757 0.333333
v 0.309584 -0.377229 0.333333
v 0.345068 -0.345068 0.333333
v 0.377229 -0.309584 0.333333
v 0.405757 -0.271118 0.333333
v 0.430378 -0.230042 0.333333
v 0.450853 -0.186750 0.333333
v 0.466987 -0.141659 0.333333
v 0.478623 -0.095204 0.333333
v 0.485650 -0.047832 0.333333
v 0.488000 0.000000 0.416667
v 0.485650 0.047832 0.416667
v 0.478623 0.095204 0.416667
v 0.466987 0.141659 0.416667
v 0.450853 0.186750 0.416667
v 0.430378 0.230042 0.416667
v 0.405757 0.271118 0.416667
v 0.377229 0.309584 0.416667
v 0.345068 0.345068 0.416667
v 0.309584 0.377229 0.416667
v 0.271118 0.405757 0.416667
v 0.230042 0.430378 0.416667
v 0.186750 0.450853 0.416667
v 0.141659 0.466987 0.416667
v 0.095204 0.478623 0.416667
v 0.047832 0.485650 0.416667
v 0.000000 0.488000 0.416667
v -0.047832 0.485650 0.416667
v -0.095204 0.478623 0.416667
v -0.141659 0.466987 0.416667
v -0.186750 0.450853 0.416667
v -0.230042 0.430378 0.416667
v -0.271118 0.405757 0.416667
v -0.309584 0.377229 0.416667
v -0.345068 0.345068 0.416667
v -0.377229 0.309584 0.416667
v -0.405757 0.271118 0.416667
v -0.430378 0.230042 0.416667
v -0.450853 0.186750 0.416667
v -0.466987 0.141659 0.416667
v -0.478623 0.095204 0.416667
v -0.485650 0.047832 0.416667
v -0.488000 0.000000 0.416667
v -0.485650 -0.047832 0.416667
v -0.478623 -0.095204 0.416667
v -0.466987 -0.141659 0.416667
v -0.450853 -0.186750 0.416667
v -0.430378 -0.230042 0.416667
v -0.405757 -0.271118 0.416667
v -0.377229 -0.309584 0.416667
v -0.345068 -0.345068 0.416667
v -0.309584 -0.377229 0.416667
v -0.271118 -0.405757 0.416667
v -0.230042 -0.430378 0.416667
v -0.186750 -0.450853 0.416667
v -0.141659 -0.466987 0.416667
v -0.095204 -0.478623 0.416667
v -0.047832 -0.485650 0.416667
v 0.000000 -0.488000 0.416667
v 0.047832 -0.485650 0.416667
v 0.095204 -0.478623 0.416667
v 0.141659 -0.466987 0.416667
v 0.186750 -0.450853 0.416667
v 0.230042 -0.430378 0.416667
v 0.271118 -0.405757 0.416667
v 0.309584 -0.377229 0.416667
v 0.345068 -0.345068 0.416667
v 0.377229 -0.309584 0.416667
v 0.405757 -0.271118 0.416667
v 0.430378 -0.230042 0.416667
v 0.450853 -0.186750 0.416667
v 0.466987 -0.141659 0.416667
v 0.478623 -0.095204 0.416667
v 0.485650 -0.047832 0.416667
v 0.488000 0.000000 0.500000
v 0.485650 0.047832 0.500000
v 0.478623 0.095204 0.500000
v 0.466987 0.141659 0.500000
v 0.450853 0.186750 0.500000
v 0.430378 0.230042 0.500000
v 0.405757 0.271118 0.500000
v 0.377229 0.309584 0.500000
v 0.345068 0.345068 0.500000
v 0.309584 0.377229 0.500000
v 0.271118 0.405757 0.500000
v 0.230042 0.430378 0.500000
v 0.186750 0.450853 0.500000
v 0.141659 0.466987 0.500000
v 0.095204 0.478623 0.500000
v 0.047832 0.485650 0.500000
v 0.000000 0.488000 0.500000
v -0.047832 0.485650 0.500000
v -0.095204 0.478623 0.500000
v -0.141659 0.466987 0.500000
v -0.186750 0.450853 0.500000
v -0.230042 0.430378 0.500000
v -0.271118 0.405757 0.500000
v -0.309584 0.377229 0.500000
v -0.345068 0.345068 0.500000
v -0.377229 0.309584 0.500000
v -0.405757 0.271118 0.500000
v -0.430378 0.230042 0.500000
v -0.450853 0.186750 0.500000
v -0.466987 0.141659 0.500000
v -0.478623 0.095204 0.500000
v -0.485650 0.047832 0.500000
v -0.488000 0.000000 0.500000
v -0.485650 -0.047832 0.500000
v -0.478623 -0.095204 0.500000
v -0.466987 -0.141659 0.500000
v -0.450853 -0.186750 0.500000
v -0.430378 -0.230042 0.500000
v -0.405757 -0.271118 0.500000
v -0.377229 -0.309584 0.500000
v -0.345068 -0.345068 0.500000
v -0.309584 -0.377229 0.500000
v -0.271118 -0.405757 0.500000
v -0.230042 -0.430378 0.500000
v -0.186750 -0.450853 0.500000
v -0.141659 -0.466987 0.500000
v -0.095204 -0.478623 0.500000
v -0.047832 -0.485650 0.500000
v 0.000000 -0.488000 0.500000
v 0.047832 -0.485650 0.500000
v 0.095204 -0.478623 0.500000
v 0.141659 -0.466987 0.500000
v 0.186750 -0.450853 0.500000
v 0.230042 -0.430378 0.500000
v 0.271118 -0.405757 0.500000
v 0.309584 -0.377229 0.500000
v 0.345068 -0.345068 0.500000
v 0.377229 -0.309584 0.500000
v 0.405757 -0.271118 0.500000
v 0.430378 -0.230042 0.500000
v 0.450853 -0.186750 0.500000
v 0.466987 -0.141659 0.500000
v 0.478623 -0.095204 0.500000
v 0.485650 -0.047832 0.500000


g shell_outer
f 1 2 66 65
f 2 3 67 66
f 3 4 68 67
f 4 5 69 68
f 5 6 70 69
f 6 7 71 70
f 7 8 72 71
f 8 9 73 72
f 9 10 74 73
f 10 11 75 74
f 11 12 76 75
f 12 13 77 76
f 13 14 78 77
f 14 15 79 78
f 15 16 80 79
f 16 17 81 80
f 17 18 82 81
f 18 19 83 82
f 19 20 84 83
f 20 21 85 84
f 21 22 86 85
f 22 23 87 86
f 23 24 88 87
f 24 25 89 88
f 25 26 90 89
f 26 27 91 90
f 27 28 92 91
f 28 29 93 92
f 29 30 94 93
f 30 31 95 94
f 31 32 96 95
f 32 33 97 96
f 33 34 98 97
f 34 35 99 98
f 35 36 100 99
f 36 37 101 100
f 37 38 102 101
f 38 39 103 102
f 39 40 104 103
f 40 41 105 104
f 41 42 106 105
f 42 43 107 106
f 43 44 108 107
f 44 45 109 108
f 45 46 110 109
f 46 47 111 110
f 47 48 112 111
f 48 49 113 112
f 49 50 114 113
f 50 51 115 114
f 51 52 116 115
f 52 53 117 116
f 53 54 118 117
f 54 55 119 118
f 55 56 120 119
f 56 57 121 120
f 57 58 122 121
f 58 59 123 122
f 59 60 124 123
f 60 61 125 124
f 61 62 126 125
f 62 63 127 126
f 63 64 128 127
f 64 1 65 128
f 65 66 130 129
f 66 67 131 130
f 67 68 132 131
f 68 69 133 132
f 69 70 134 133
f 70 71 135 134
f 71 72 136 135
f 72 73 137 136
f 73 74 138 137
f 74 75 139 138
f 75 76 140 139
f 76 77 141 140
f 77 78 142 141
f 78 79 143 142
f 79 80 144 143
f 80 81 145 144
f 81 82 146 145
f 82 83 147 146
f 83 84 148 147
f 84 85 149 148
f 85 86 150 149
f 86 87 151 150
f 87 88 152 151
f 88 89 153 152
f 89 90 154 153
f 90 91 155 154
f 91 92 156 155
f 92 93 157 156
f 93 94 158 157
f 94 95 159 158
f 95 96 160 159
f 96 97 161 160
f 97 98 162 161
f 98 99 163 162
f 99 100 164 163
f 100 101 165 164
f 101 102 166 165
f 102 103 167 166
f 103 104 168 167
f 104 105 169 168
f 105 106 170 169
f 106 107 171 170
f 107 108 172 171
f 108 109 173 172
f 109 110 174 173
f 110 111 175 174
f 111 112 176 175
f 112 113 177 176
f 113 114 178 177
f 114 115 179 178
f 115 116 180 179
f 116 117 181 180
f 117 118 182 181
f 118 119 183 182
f 119 120 184 183
f 120 121 185 184
f 121 122 186 185
f 122 123 187 186
f 123 124 188 187
f 124 125 189 188
f 125 126 190 189
f 126 127 191 190
f 127 128 192 191
f 128 65 129 192
f 129 130 194 193
f 130 131 195 194
f 131 132 196 195
f 132 133 197 196
f 133 134 198 197
f 134 135 199 198
f 135 136 200 199
f 136 137 201 200
f 137 138 202 201
f 138 139 203 202
f 139 140 204 203
f 140 141 205 204
f 141 142 206 205
f 142 143 207 206
f 143 144 208 207
f 144 145 209 208
f 145 146 210 209
f 146 147 211 210
f 147 148 212 211
f 148 149 213 212
f 149 150 214 213
f 150 151 215 214
f 151 152 216 215
f 152 153 217 216
f 153 154 218 217
f 154 155 219 218
f 155 156 220 219
f 156 157 221 220
f 157 158 222 221
f 158 159 223 222
f 159 160 224 223
f 160 161 225 224
f 161 162 226 225
f 162 163 227 226
f 163 164 228 227
f 164 165 229 228
f 165 166 230 229
f 166 167 231 230
f 167 168 232 231
f 168 169 233 232
f 169 170 234 233
f 170 171 235 234
f 171 172 236 235
f 172 173 237 236
f 173 174 238 237
f 174 175 239 238
f 175 176 240 239
f 176 177 241 240
f 177 178 242 241
f 178 179 243 242
f 179 180 244 243
f 180 181 245 244
f 181 182 246 245
f 182 183 247 246
f 183 184 248 247
f 184 185 249 248
f 185 186 250 249
f 186 187 251 250
f 187 188 252 251
f 188 189 253 252
f 189 190 254 253
f 190 191 255 254
f 191 192 256 255
f 192 129 193 256
f 193 194 258 257
f 194 195 259 258
f 195 196 260 259
f 196 197 261 260
f 197 198 262 261
f 198 199 263 262
f 199 200 264 263
f 200 201 265 264
f 201 202 266 265
f 202 203 267 266
f 203 204 268 267
f 204 205 269 268
f 205 206 270 269
f 206 207 271 270
f 207 208 272 271
f 208 209 273 272
f 209 210 274 273
f 210 211 275 274
f 211 212 276 275
f 212 213 277 276
f 213 214 278 277
f 214 215 279 278
f 215 216 280 279
f 216 217 281 280
f 217 218 282 281
f 218 219 283 282
f 219 220 284 283
f 220 221 285 284
f 221 222 286 285
f 222 223 287 286
f 223 224 288 287
f 224 225 289 288
f 225 226 290 289
f 226 227 291 290
f 227 228 292 291
f 228 229 293 292
f 229 230 294 293
f 230 231 295 294
f 231 232 296 295
f 232 233 297 296
f 233 234 298 297
f 234 235 299 298
f 235 236 300 299
f 236 237 301 300
f 237 238 302 301
f 238 239 303 302
f 239 240 304 303
f 240 241 305 304
f 241 242 306 305
f 242 243 307 306
f 243 244 308 307
f 244 245 309 308
f 245 246 310 309
f 246 247 311 310
f 247 248 312 311
f 248 249 313 312
f 249 250 314 313
f 250 251 315 314
f 251 252 316 315
f 252 253 317 316
f 253 254 318 317
f 254 255 319 318
f 255 256 320 319
f 256 193 257 320
f 257 258 322 321
f 258 259 323 322
f 259 260 324 323
f 260 261 325 324
f 261 262 326 325
f 262 263 327 326
f 263 264 328 327
f 264 265 329 328
f 265 266 330 329
f 266 267 331 330
f 267 268 332 331
f 268 269 333 332
f 269 270 334 333
f 270 271 335 334
f 271 272 336 335
f 272 273 337 336
f 273 274 338 337
f 274 275 339 338
f 275 276 340 339
f 276 277 341 340
f 277 278 342 341
f 278 279 343 342
f 279 280 344 343
f 280 281 345 344
f 281 282 346 345
f 282 283 347 346
f 283 284 348 347
f 284 285 349 348
f 285 286 350 349
f 286 287 351 350
f 287 288 352 351
f 288 289 353 352
f 289 290 354 353
f 290 291 355 354
f 291 292 356 355
f 292 293 357 356
f 293 294 358 357
f 294 295 359 358
f 295 296 360 359
f 296 297 361 360
f 297 298 362 361
f 298 299 363 362
f 299 300 364 363
f 300 301 365 364
f 301 302 366 365
f 302 303 367 366
f 303 304 368 367
f 304 305 369 368
f 305 306 370 369
f 306 307 371 370
f 307 308 372 371
f 308 309 373 372
f 309 310 374 373
f 310 311 375 374
f 311 312 376 375
f 312 313 377 376
f 313 314 378 377
f 314 315 379 378
f 315 316 380 379
f 316 317 381 380
f 317 318 382 381
f 318 319 383 382
f 319 320 384 383
f 320 257 321 384
f 321 322 386 385
f 322 323 387 386
f 323 324 388 387
f 324 325 389 388
f 325 326 390 389
f 326 327 391 390
f 327 328 392 391
f 328 329 393 392
f 329 330 394 393
f 330 331 395 394
f 331 332 396 395
f 332 333 397 396
f 333 334 398 397
f 334 335 399 398
f 335 336 400 399
f 336 337 401 400
f 337 338 402 401
f 338 339 403 402
f 339 340 404 403
f 340 341 405 404
f 341 342 406 405
f 342 343 407 406
f 343 344 408 407
f 344 345 409 408
f 345 346 410 409
f 346 347 411 410
f 347 348 412 411
f 348 349 413 412
f 349 350 414 413
f 350 351 415 414
f 351 352 416 415
f 352 353 417 416
f 353 354 418 417
f 354 355 419 418
f 355 356 420 419
f 356 357 421 420
f 357 358 422 421
f 358 359 423 422
f 359 360 424 423
f 360 361 425 424
f 361 362 426 425
f 362 363 427 426
f 363 364 428 427
f 364 365 429 428
f 365 366 430 429
f 366 367 431 430
f 367 368 432 431
f 368 369 433 432
f 369 370 434 433
f 370 371 435 434
f 371 372 436 435
f 372 373 437 436
f 373 374 438 437
f 374 375 439 438
f 375 376 440 439
f 376 377 441 440
f 377 378 442 441
f 378 379 443 442
f 379 380 444 443
f 380 381 445 444
f 381 382 446 445
f 382 383 447 446
f 383 384 448 447
f 384 321 385 448

g shell_inner
f 449 513 514 450
f 450 514 515 451
f 451 515 516 452
f 452 516 517 453
f 453 517 518 454
f 454 518 519 455
f 455 519 520 456
f 456 520 521 457
f 457 521 522 458
f 458 522 523 459
f 459 523 524 460
f 460 524 525 461
f 461 525 526 462
f 462 526 527 463
f 463 527 528 464
f 464 528 529 465
f 465 529 530 466
f 466 530 531 467
f 467 531 532 468
f 468 532 533 469
f 469 533 534 470
f 470 534 535 471
f 471 535 536 472
f 472 536 537 473
f 473 537 538 474
f 474 538 539 475
f 475 539 540 476
f 476 540 541 477
f 477 541 542 478
f 478 542 543 479
f 479 543 544 480
f 480 544 545 481
f 481 545 546 482
f 482 546 547 483
f 483 547 548 484
f 484 548 549 485
f 485 549 550 486
f 486 550 551 487
f 487 551 552 488
f 488 552 553 489
f 489 553 554 490
f 490 554 555 491
f 491 555 556 492
f 492 556 557 493
f 493 557 558 494
f 494 558 559 495
f 495 559 560 496
f 496 560 561 497
f 497 561 562 498
f 498 562 563 499
f 499 563 564 500
f 500 564 565 501
f 501 565 566 502
f 502 566 567 503
f 503 567 568 504
f 504 568 569 505
f 505 569 570 506
f 506 570 571 507
f 507 571 572 508
f 508 572 573 509
f 509 573 574 510
f 510 574 575 511
f 511 575 576 512
f 512 576 513 449
f 513 577 578 514
f 514 578 579 515
f 515 579 580 516
f 516 580 581 517
f 517 581 582 518
f 518 582 583 519
f 519 583 584 520
f 520 584 585 521
f 521 585 586 522
f 522 586 587 523
f 523 587 588 524
f 524 588 589 525
f 525 589 590 526
f 526 590 591 527
f 527 591 592 528
f 528 592 593 529
f 529 593 594 530
f 530 594 595 531
f 531 595 596 532
f 532 596 597 533
f 533 597 598 534
f 534 598 599 535
f 535 599 600 536
f 536 600 601 537
f 537 601 602 538
f 538 602 603 539
f 539 603 604 540
f 540 604 605 541
f 541 605 606 542
f 542 606 607 543
f 543 607 608 544
f 544 608 609 545
f 545 609 610 546
f 546 610 611 547
f 547 611 612 548
f 548 612 613 549
f 549 613 614 550
f 550 614 615 551
f 551 615 616 552
f 552 616 617 553
f 553 617 618 554
f 554 618 619 555
f 555 619 620 556
f 556 620 621 557
f 557 621 622 558
f 558 622 623 559
f 559 623 624 560
f 560 624 625 561
f 561 625 626 562
f 562 626 627 563
f 563 627 628 564
f 564 628 629 565
f 565 629 630 566
f 566 630 631 567
f 567 631 632 568
f 568 632 633 569
f 569 633 634 570
f 570 634 635 571
f 571 635 636 572
f 572 636 637 573
f 573 637 638 574
f 574 638 639 575
f 575 639 640 576
f 576 640 577 513
f 577 641 642 578
f 578 642 643 579
f 579 643 644 580
f 580 644 645 581
f 581 645 646 582
f 582 646 647 583
f 583 647 648 584
f 584 648 649 585
f 585 649 650 586
f 586 650 651 587
f 587 651 652 588
f 588 652 653 589
f 589 653 654 590
f 590 654 655 591
f 591 655 656 592
f 592 656 657 593
f 593 657 658 594
f 594 658 659 595
f 595 659 660 596
f 596 660 661 597
f 597 661 662 598
f 598 662 663 599
f 599 663 664 600
f 600 664 665 601
f 601 665 666 602
f 602 666 667 603
f 603 667 668 604
f 604 668 669 605
f 605 669 670 606
f 606 670 671 607
f 607 671 672 608
f 608 672 673 609
f 609 673 674 610
f 610 674 675 611
f 611 675 676 612
f 612 676 677 613
f 613 677 678 614
f 614 678 679 615
f 615 679 680 616
f 616 680 681 617
f 617 681 682 618
f 618 682 683 619
f 619 683 684 620
f 620 684 685 621
f 621 685 686 622
f 622 686 687 623
f 623 687 688 624
f 624 688 689 625
f 625 689 690 626
f 626 690 691 627
f 627 691 692 628
f 628 692 693 629
f 629 693 694 630
f 630 694 695 631
f 631 695 696 632
f 632 696 697 633
f 633 697 698 634
f 634 698 699 635
f 635 699 700 636
f 636 700 701 637
f 637 701 702 638
f 638 702 703 639
f 639 703 704 640
f 640 704 641 577
f 641 705 706 642
f 642 706 707 643
f 643 707 708 644
f 644 708 709 645
f 645 709 710 646
f 646 710 711 647
f 647 711 712 648
f 648 712 713 649
f 649 713 714 650
f 650 714 715 651
f 651 715 716 652
f 652 716 717 653
f 653 717 718 654
f 654 718 719 655
f 655 719 720 656
f 656 720 721 657
f 657 721 722 658
f 658 722 723 659
f 659 723 724 660
f 660 724 725 661
f 661 725 726 662
f 662 726 727 663
f 663 727 728 664
f 664 728 729 665
f 665 729 730 666
f 666 730 731 667
f 667 731 732 668
f 668 732 733 669
f 669 733 734 670
f 670 734 735 671
f 671 735 736 672
f 672 736 737 673
f 673 737 738 674
f 674 738 739 675
f 675 739 740 676
f 676 740 741 677
f 677 741 742 678
f 678 742 743 679
f 679 743 744 680
f 680 744 745 681
f 681 745 746 682
f 682 746 747 683
f 683 747 748 684
f 684 748 749 685
f 685 749 750 686
f 686 750 751 687
f 687 751 752 688
f 688 752 753 689
f 689 753 754 690
f 690 754 755 691
f 691 755 756 692
f 692 756 757 693
f 693 757 758 694
f 694 758 759 695
f 695 759 760 696
f 696 760 761 697
f 697 761 762 698
f 698 762 763 699
f 699 763 764 700
f 700 764 765 701
f 701 765 766 702
f 702 766 767 703
f 703 767 768 704
f 704 768 705 641
f 705 769 770 706
f 706 770 771 707
f 707 771 772 708
f 708 772 773 709
f 709 773 774 710
f 710 774 775 711
f 711 775 776 712
f 712 776 777 713
f 713 777 778 714
f 714 778 779 715
f 715 779 780 716
f 716 780 781 717
f 717 781 782 718
f 718 782 783 719
f 719 783 784 720
f 720 784 785 721
f 721 785 786 722
f 722 786 787 723
f 723 787 788 724
f 724 788 789 725
f 725 789 790 726
f 726 790 791 727
f 727 791 792 728
f 728 792 793 729
f 729 793 794 730
f 730 794 795 731
f 731 795 796 732
f 732 796 797 733
f 733 797 798 734
f 734 798 799 735
f 735 799 800 736
f 736 800 801 737
f 737 801 802 738
f 738 802 803 739
f 739 803 804 740
f 740 804 805 741
f 741 805 806 742
f 742 806 807 743
f 743 807 808 744
f 744 808 809 745
f 745 809 810 746
f 746 810 811 747
f 747 811 812 748
f 748 812 813 749
f 749 813 814 750
f 750 814 815 751
f 751 815 816 752
f 752 816 817 753
f 753 817 818 754
f 754 818 819 755
f 755 819 820 756
f 756 820 821 757
f 757 821 822 758
f 758 822 823 759
f 759 823 824 760
f 760 824 825 761
f 761 825 826 762
f 762 826 827 763
f 763 827 828 764
f 764 828 829 765
f 765 829 830 766
f 766 830 831 767
f 767 831 832 768
f 768 832 769 705
f 769 833 834 770
f 770 834 835 771
f 771 835 836 772
f 772 836 837 773
f 773 837 838 774
f 774 838 839 775
f 775 839 840 776
f 776 840 841 777
f 777 841 842 778
f 778 842 843 779
f 779 843 844 780
f 780 844 845 781
f 781 845 846 782
f 782 846 847 783
f 783 847 848 784
f 784 848 849 785
f 785 849 850 786
f 786 850 851 787
f 787 851 852 788
f 788 852 853 789
f 789 853 854 790
f 790 854 855 791
f 791 855 856 792
f 792 856 857 793
f 793 857 858 794
f 794 858 859 795
f 795 859 860 796
f 796 860 861 797
f 797 861 862 798
f 798 862 863 799
f 799 863 864 800
f 800 864 865 801
f 801 865 866 802
f 802 866 867 803
f 803 867 868 804
f 804 868 869 805
f 805 869 870 806
f 806 870 871 807
f 807 871 872 808
f 808 872 873 809
f 809 873 874 810
f 810 874 875 811
f 811 875 876 812
f 812 876 877 813
f 813 877 878 814
f 814 878 879 815
f 815 879 880 816
f 816 880 881 817
f 817 881 882 818
f 818 882 883 819
f 819 883 884 820
f 820 884 885 821
f 821 885 886 822
f 822 886 887 823
f 823 887 888 824
f 824 888 889 825
f 825 889 890 826
f 826 890 891 827
f 827 891 892 828
f 828 892 893 829
f 829 893 894 830
f 830 894 895 831
f 831 895 896 832
f 832 896 833 769

g frame_land_aft
f 1 449 450 2
f 2 450 451 3
f 3 451 452 4
f 4 452 453 5
f 5 453 454 6
f 6 454 455 7
f 7 455 456 8
f 8 456 457 9
f 9 457 458 10
f 10 458 459 11
f 11 459 460 12
f 12 460 461 13
f 13 461 462 14
f 14 462 463 15
f 15 463 464 16
f 16 464 465 17
f 17 465 466 18
f 18 466 467 19
f 19 467 468 20
f 20 468 469 21
f 21 469 470 22
f 22 470 471 23
f 23 471 472 24
f 24 472 473 25
f 25 473 474 26
f 26 474 475 27
f 27 475 476 28
f 28 476 477 29
f 29 477 478 30
f 30 478 479 31
f 31 479 480 32
f 32 480 481 33
f 33 481 482 34
f 34 482 483 35
f 35 483 484 36
f 36 484 485 37
f 37 485 486 38
f 38 486 487 39
f 39 487 488 40
f 40 488 489 41
f 41 489 490 42
f 42 490 491 43
f 43 491 492 44
f 44 492 493 45
f 45 493 494 46
f 46 494 495 47
f 47 495 496 48
f 48 496 497 49
f 49 497 498 50
f 50 498 499 51
f 51 499 500 52
f 52 500 501 53
f 53 501 502 54
f 54 502 503 55
f 55 503 504 56
f 56 504 505 57
f 57 505 506 58
f 58 506 507 59
f 59 507 508 60
f 60 508 509 61
f 61 509 510 62
f 62 510 511 63
f 63 511 512 64
f 64 512 449 1

g frame_land_fwd
f 385 386 834 833
f 386 387 835 834
f 387 388 836 835
f 388 389 837 836
f 389 390 838 837
f 390 391 839 838
f 391 392 840 839
f 392 393 841 840
f 393 394 842 841
f 394 395 843 842
f 395 396 844 843
f 396 397 845 844
f 397 398 846 845
f 398 399 847 846
f 399 400 848 847
f 400 401 849 848
f 401 402 850 849
f 402 403 851 850
f 403 404 852 851
f 404 405 853 852
f 405 406 854 853
f 406 407 855 854
f 407 408 856 855
f 408 409 857 856
f 409 410 858 857
f 410 411 859 858
f 411 412 860 859
f 412 413 861 860
f 413 414 862 861
f 414 415 863 862
f 415 416 864 863
f 416 417 865 864
f 417 418 866 865
f 418 419 867 866
f 419 420 868 867
f 420 421 869 868
f 421 422 870 869
f 422 423 871 870
f 423 424 872 871
f 424 425 873 872
f 425 426 874 873
f 426 427 875 874
f 427 428 876 875
f 428 429 877 876
f 429 430 878 877
f 430 431 879 878
f 431 432 880 879
f 432 433 881 880
f 433 434 882 881
f 434 435 883 882
f 435 436 884 883
f 436 437 885 884
f 437 438 886 885
f 438 439 887 886
f 439 440 888 887
f 440 441 889 888
f 441 442 890 889
f 442 443 891 890
f 443 444 892 891
f 444 445 893 892
f 445 446 894 893
f 446 447 895 894
f 447 448 896 895
f 448 385 833 896
