# fairing.obj — nose fairing shell of a 0.2 m diameter AUV.
#
# GENERATED FILE. Do not hand-edit: regenerate with
#   python3 examples/am-polymer-auv-fairing/generate-geometry.py
# which is deterministic and reproduces this file byte-for-byte.
#
# Semi-elliptical outer profile, semi-axes 0.300 m axial x 0.100 m radial,
# truncated at z = 0.294 m leaving a 40 mm sonar-window annulus.
# Wall 3 mm, as a true normal offset of the outer meridian.
# Axis of revolution is +Z (also the print direction). 36 circumferential
# facets x 12 axial rows per skin.
#
# 936 vertices, 936 faces (1872 Tri3 cells after obj-reader fan-triangulation).
# Enclosed laminate volume 446.1 cm^3.
# Bounding box (-0.1000, -0.1000, 0.0000) .. (0.1000, 0.1000, 0.2940) m.
#
# Vertex layout: outer skin first, N_AXIAL rows of N_THETA nodes by
# increasing z then increasing theta, then the inner skin the same
# way. Surfaces are named with `g` groups, which obj-reader ignores:
#   skin_outer   — wetted surface
#   skin_inner   — dry bay
#   base_flange  — z = 0 annulus, bolted joint + first print layer
#   nose_window  — the truncation annulus at the tip
#
# They are deliberately NOT `usemtl` groups. obj-reader maps usemtl
# names to per-cell tags, and every AM capability reads a non-negative
# cell tag as a LAYER INDEX (contract § 2.2 rule 1) — a usemtl-tagged
# OBJ would be simulated as a four-layer part instead of the 735 print
# layers this example asks for. Untagged cells (tag -1) take the
# documented fallback: bin the cell centroid along build_direction by
# layer_height.
#
# Faces are quads wound CCW seen from outside the laminate, so
# normals point out of the solid (enclosed volume above is positive).

v 0.100000 0.000000 0.000000
v 0.098481 0.017365 0.000000
v 0.093969 0.034202 0.000000
v 0.086603 0.050000 0.000000
v 0.076604 0.064279 0.000000
v 0.064279 0.076604 0.000000
v 0.050000 0.086603 0.000000
v 0.034202 0.093969 0.000000
v 0.017365 0.098481 0.000000
v 0.000000 0.100000 0.000000
v -0.017365 0.098481 0.000000
v -0.034202 0.093969 0.000000
v -0.050000 0.086603 0.000000
v -0.064279 0.076604 0.000000
v -0.076604 0.064279 0.000000
v -0.086603 0.050000 0.000000
v -0.093969 0.034202 0.000000
v -0.098481 0.017365 0.000000
v -0.100000 0.000000 0.000000
v -0.098481 -0.017365 0.000000
v -0.093969 -0.034202 0.000000
v -0.086603 -0.050000 0.000000
v -0.076604 -0.064279 0.000000
v -0.064279 -0.076604 0.000000
v -0.050000 -0.086603 0.000000
v -0.034202 -0.093969 0.000000
v -0.017365 -0.098481 0.000000
v 0.000000 -0.100000 0.000000
v 0.017365 -0.098481 0.000000
v 0.034202 -0.093969 0.000000
v 0.050000 -0.086603 0.000000
v 0.064279 -0.076604 0.000000
v 0.076604 -0.064279 0.000000
v 0.086603 -0.050000 0.000000
v 0.093969 -0.034202 0.000000
v 0.098481 -0.017365 0.000000
v 0.099349 0.000000 0.034187
v 0.097839 0.017252 0.034187
v 0.093357 0.033979 0.034187
v 0.086038 0.049674 0.034187
v 0.076105 0.063860 0.034187
v 0.063860 0.076105 0.034187
v 0.049674 0.086038 0.034187
v 0.033979 0.093357 0.034187
v 0.017252 0.097839 0.034187
v 0.000000 0.099349 0.034187
v -0.017252 0.097839 0.034187
v -0.033979 0.093357 0.034187
v -0.049674 0.086038 0.034187
v -0.063860 0.076105 0.034187
v -0.076105 0.063860 0.034187
v -0.086038 0.049674 0.034187
v -0.093357 0.033979 0.034187
v -0.097839 0.017252 0.034187
v -0.099349 0.000000 0.034187
v -0.097839 -0.017252 0.034187
v -0.093357 -0.033979 0.034187
v -0.086038 -0.049674 0.034187
v -0.076105 -0.063860 0.034187
v -0.063860 -0.076105 0.034187
v -0.049674 -0.086038 0.034187
v -0.033979 -0.093357 0.034187
v -0.017252 -0.097839 0.034187
v 0.000000 -0.099349 0.034187
v 0.017252 -0.097839 0.034187
v 0.033979 -0.093357 0.034187
v 0.049674 -0.086038 0.034187
v 0.063860 -0.076105 0.034187
v 0.076105 -0.063860 0.034187
v 0.086038 -0.049674 0.034187
v 0.093357 -0.033979 0.034187
v 0.097839 -0.017252 0.034187
v 0.097403 0.000000 0.067929
v 0.095923 0.016914 0.067929
v 0.091529 0.033314 0.067929
v 0.084353 0.048701 0.067929
v 0.074615 0.062609 0.067929
v 0.062609 0.074615 0.067929
v 0.048701 0.084353 0.067929
v 0.033314 0.091529 0.067929
v 0.016914 0.095923 0.067929
v 0.000000 0.097403 0.067929
v -0.016914 0.095923 0.067929
v -0.033314 0.091529 0.067929
v -0.048701 0.084353 0.067929
v -0.062609 0.074615 0.067929
v -0.074615 0.062609 0.067929
v -0.084353 0.048701 0.067929
v -0.091529 0.033314 0.067929
v -0.095923 0.016914 0.067929
v -0.097403 0.000000 0.067929
v -0.095923 -0.016914 0.067929
v -0.091529 -0.033314 0.067929
v -0.084353 -0.048701 0.067929
v -0.074615 -0.062609 0.067929
v -0.062609 -0.074615 0.067929
v -0.048701 -0.084353 0.067929
v -0.033314 -0.091529 0.067929
v -0.016914 -0.095923 0.067929
v 0.000000 -0.097403 0.067929
v 0.016914 -0.095923 0.067929
v 0.033314 -0.091529 0.067929
v 0.048701 -0.084353 0.067929
v 0.062609 -0.074615 0.067929
v 0.074615 -0.062609 0.067929
v 0.084353 -0.048701 0.067929
v 0.091529 -0.033314 0.067929
v 0.095923 -0.016914 0.067929
v 0.094188 0.000000 0.100785
v 0.092757 0.016356 0.100785
v 0.088508 0.032214 0.100785
v 0.081569 0.047094 0.100785
v 0.072152 0.060543 0.100785
v 0.060543 0.072152 0.100785
v 0.047094 0.081569 0.100785
v 0.032214 0.088508 0.100785
v 0.016356 0.092757 0.100785
v 0.000000 0.094188 0.100785
v -0.016356 0.092757 0.100785
v -0.032214 0.088508 0.100785
v -0.047094 0.081569 0.100785
v -0.060543 0.072152 0.100785
v -0.072152 0.060543 0.100785
v -0.081569 0.047094 0.100785
v -0.088508 0.032214 0.100785
v -0.092757 0.016356 0.100785
v -0.094188 0.000000 0.100785
v -0.092757 -0.016356 0.100785
v -0.088508 -0.032214 0.100785
v -0.081569 -0.047094 0.100785
v -0.072152 -0.060543 0.100785
v -0.060543 -0.072152 0.100785
v -0.047094 -0.081569 0.100785
v -0.032214 -0.088508 0.100785
v -0.016356 -0.092757 0.100785
v 0.000000 -0.094188 0.100785
v 0.016356 -0.092757 0.100785
v 0.032214 -0.088508 0.100785
v 0.047094 -0.081569 0.100785
v 0.060543 -0.072152 0.100785
v 0.072152 -0.060543 0.100785
v 0.081569 -0.047094 0.100785
v 0.088508 -0.032214 0.100785
v 0.092757 -0.016356 0.100785
v 0.089746 0.000000 0.132329
v 0.088383 0.015584 0.132329
v 0.084334 0.030695 0.132329
v 0.077722 0.044873 0.132329
v 0.068749 0.057688 0.132329
v 0.057688 0.068749 0.132329
v 0.044873 0.077722 0.132329
v 0.030695 0.084334 0.132329
v 0.015584 0.088383 0.132329
v 0.000000 0.089746 0.132329
v -0.015584 0.088383 0.132329
v -0.030695 0.084334 0.132329
v -0.044873 0.077722 0.132329
v -0.057688 0.068749 0.132329
v -0.068749 0.057688 0.132329
v -0.077722 0.044873 0.132329
v -0.084334 0.030695 0.132329
v -0.088383 0.015584 0.132329
v -0.089746 0.000000 0.132329
v -0.088383 -0.015584 0.132329
v -0.084334 -0.030695 0.132329
v -0.077722 -0.044873 0.132329
v -0.068749 -0.057688 0.132329
v -0.057688 -0.068749 0.132329
v -0.044873 -0.077722 0.132329
v -0.030695 -0.084334 0.132329
v -0.015584 -0.088383 0.132329
v 0.000000 -0.089746 0.132329
v 0.015584 -0.088383 0.132329
v 0.030695 -0.084334 0.132329
v 0.044873 -0.077722 0.132329
v 0.057688 -0.068749 0.132329
v 0.068749 -0.057688 0.132329
v 0.077722 -0.044873 0.132329
v 0.084334 -0.030695 0.132329
v 0.088383 -0.015584 0.132329
v 0.084135 0.000000 0.162149
v 0.082857 0.014610 0.162149
v 0.079061 0.028776 0.162149
v 0.072863 0.042067 0.162149
v 0.064451 0.054081 0.162149
v 0.054081 0.064451 0.162149
v 0.042067 0.072863 0.162149
v 0.028776 0.079061 0.162149
v 0.014610 0.082857 0.162149
v 0.000000 0.084135 0.162149
v -0.014610 0.082857 0.162149
v -0.028776 0.079061 0.162149
v -0.042067 0.072863 0.162149
v -0.054081 0.064451 0.162149
v -0.064451 0.054081 0.162149
v -0.072863 0.042067 0.162149
v -0.079061 0.028776 0.162149
v -0.082857 0.014610 0.162149
v -0.084135 0.000000 0.162149
v -0.082857 -0.014610 0.162149
v -0.079061 -0.028776 0.162149
v -0.072863 -0.042067 0.162149
v -0.064451 -0.054081 0.162149
v -0.054081 -0.064451 0.162149
v -0.042067 -0.072863 0.162149
v -0.028776 -0.079061 0.162149
v -0.014610 -0.082857 0.162149
v 0.000000 -0.084135 0.162149
v 0.014610 -0.082857 0.162149
v 0.028776 -0.079061 0.162149
v 0.042067 -0.072863 0.162149
v 0.054081 -0.064451 0.162149
v 0.064451 -0.054081 0.162149
v 0.072863 -0.042067 0.162149
v 0.079061 -0.028776 0.162149
v 0.082857 -0.014610 0.162149
v 0.077427 0.000000 0.189856
v 0.076251 0.013445 0.189856
v 0.072758 0.026482 0.189856
v 0.067054 0.038714 0.189856
v 0.059313 0.049769 0.189856
v 0.049769 0.059313 0.189856
v 0.038714 0.067054 0.189856
v 0.026482 0.072758 0.189856
v 0.013445 0.076251 0.189856
v 0.000000 0.077427 0.189856
v -0.013445 0.076251 0.189856
v -0.026482 0.072758 0.189856
v -0.038714 0.067054 0.189856
v -0.049769 0.059313 0.189856
v -0.059313 0.049769 0.189856
v -0.067054 0.038714 0.189856
v -0.072758 0.026482 0.189856
v -0.076251 0.013445 0.189856
v -0.077427 0.000000 0.189856
v -0.076251 -0.013445 0.189856
v -0.072758 -0.026482 0.189856
v -0.067054 -0.038714 0.189856
v -0.059313 -0.049769 0.189856
v -0.049769 -0.059313 0.189856
v -0.038714 -0.067054 0.189856
v -0.026482 -0.072758 0.189856
v -0.013445 -0.076251 0.189856
v 0.000000 -0.077427 0.189856
v 0.013445 -0.076251 0.189856
v 0.026482 -0.072758 0.189856
v 0.038714 -0.067054 0.189856
v 0.049769 -0.059313 0.189856
v 0.059313 -0.049769 0.189856
v 0.067054 -0.038714 0.189856
v 0.072758 -0.026482 0.189856
v 0.076251 -0.013445 0.189856
v 0.069711 0.000000 0.215089
v 0.068652 0.012105 0.215089
v 0.065507 0.023843 0.215089
v 0.060372 0.034856 0.215089
v 0.053402 0.044809 0.215089
v 0.044809 0.053402 0.215089
v 0.034856 0.060372 0.215089
v 0.023843 0.065507 0.215089
v 0.012105 0.068652 0.215089
v 0.000000 0.069711 0.215089
v -0.012105 0.068652 0.215089
v -0.023843 0.065507 0.215089
v -0.034856 0.060372 0.215089
v -0.044809 0.053402 0.215089
v -0.053402 0.044809 0.215089
v -0.060372 0.034856 0.215089
v -0.065507 0.023843 0.215089
v -0.068652 0.012105 0.215089
v -0.069711 0.000000 0.215089
v -0.068652 -0.012105 0.215089
v -0.065507 -0.023843 0.215089
v -0.060372 -0.034856 0.215089
v -0.053402 -0.044809 0.215089
v -0.044809 -0.053402 0.215089
v -0.034856 -0.060372 0.215089
v -0.023843 -0.065507 0.215089
v -0.012105 -0.068652 0.215089
v 0.000000 -0.069711 0.215089
v 0.012105 -0.068652 0.215089
v 0.023843 -0.065507 0.215089
v 0.034856 -0.060372 0.215089
v 0.044809 -0.053402 0.215089
v 0.053402 -0.044809 0.215089
v 0.060372 -0.034856 0.215089
v 0.065507 -0.023843 0.215089
v 0.068652 -0.012105 0.215089
v 0.061087 0.000000 0.237520
v 0.060159 0.010608 0.237520
v 0.057403 0.020893 0.237520
v 0.052903 0.030543 0.237520
v 0.046795 0.039266 0.237520
v 0.039266 0.046795 0.237520
v 0.030543 0.052903 0.237520
v 0.020893 0.057403 0.237520
v 0.010608 0.060159 0.237520
v 0.000000 0.061087 0.237520
v -0.010608 0.060159 0.237520
v -0.020893 0.057403 0.237520
v -0.030543 0.052903 0.237520
v -0.039266 0.046795 0.237520
v -0.046795 0.039266 0.237520
v -0.052903 0.030543 0.237520
v -0.057403 0.020893 0.237520
v -0.060159 0.010608 0.237520
v -0.061087 0.000000 0.237520
v -0.060159 -0.010608 0.237520
v -0.057403 -0.020893 0.237520
v -0.052903 -0.030543 0.237520
v -0.046795 -0.039266 0.237520
v -0.039266 -0.046795 0.237520
v -0.030543 -0.052903 0.237520
v -0.020893 -0.057403 0.237520
v -0.010608 -0.060159 0.237520
v 0.000000 -0.061087 0.237520
v 0.010608 -0.060159 0.237520
v 0.020893 -0.057403 0.237520
v 0.030543 -0.052903 0.237520
v 0.039266 -0.046795 0.237520
v 0.046795 -0.039266 0.237520
v 0.052903 -0.030543 0.237520
v 0.057403 -0.020893 0.237520
v 0.060159 -0.010608 0.237520
v 0.051666 0.000000 0.256856
v 0.050881 0.008972 0.256856
v 0.048551 0.017671 0.256856
v 0.044744 0.025833 0.256856
v 0.039579 0.033211 0.256856
v 0.033211 0.039579 0.256856
v 0.025833 0.044744 0.256856
v 0.017671 0.048551 0.256856
v 0.008972 0.050881 0.256856
v 0.000000 0.051666 0.256856
v -0.008972 0.050881 0.256856
v -0.017671 0.048551 0.256856
v -0.025833 0.044744 0.256856
v -0.033211 0.039579 0.256856
v -0.039579 0.033211 0.256856
v -0.044744 0.025833 0.256856
v -0.048551 0.017671 0.256856
v -0.050881 0.008972 0.256856
v -0.051666 0.000000 0.256856
v -0.050881 -0.008972 0.256856
v -0.048551 -0.017671 0.256856
v -0.044744 -0.025833 0.256856
v -0.039579 -0.033211 0.256856
v -0.033211 -0.039579 0.256856
v -0.025833 -0.044744 0.256856
v -0.017671 -0.048551 0.256856
v -0.008972 -0.050881 0.256856
v 0.000000 -0.051666 0.256856
v 0.008972 -0.050881 0.256856
v 0.017671 -0.048551 0.256856
v 0.025833 -0.044744 0.256856
v 0.033211 -0.039579 0.256856
v 0.039579 -0.033211 0.256856
v 0.044744 -0.025833 0.256856
v 0.048551 -0.017671 0.256856
v 0.050881 -0.008972 0.256856
v 0.041573 0.000000 0.272846
v 0.040941 0.007219 0.272846
v 0.039066 0.014219 0.272846
v 0.036003 0.020786 0.272846
v 0.031847 0.026723 0.272846
v 0.026723 0.031847 0.272846
v 0.020786 0.036003 0.272846
v 0.014219 0.039066 0.272846
v 0.007219 0.040941 0.272846
v 0.000000 0.041573 0.272846
v -0.007219 0.040941 0.272846
v -0.014219 0.039066 0.272846
v -0.020786 0.036003 0.272846
v -0.026723 0.031847 0.272846
v -0.031847 0.026723 0.272846
v -0.036003 0.020786 0.272846
v -0.039066 0.014219 0.272846
v -0.040941 0.007219 0.272846
v -0.041573 0.000000 0.272846
v -0.040941 -0.007219 0.272846
v -0.039066 -0.014219 0.272846
v -0.036003 -0.020786 0.272846
v -0.031847 -0.026723 0.272846
v -0.026723 -0.031847 0.272846
v -0.020786 -0.036003 0.272846
v -0.014219 -0.039066 0.272846
v -0.007219 -0.040941 0.272846
v 0.000000 -0.041573 0.272846
v 0.007219 -0.040941 0.272846
v 0.014219 -0.039066 0.272846
v 0.020786 -0.036003 0.272846
v 0.026723 -0.031847 0.272846
v 0.031847 -0.026723 0.272846
v 0.036003 -0.020786 0.272846
v 0.039066 -0.014219 0.272846
v 0.040941 -0.007219 0.272846
v 0.030938 0.000000 0.285282
v 0.030468 0.005372 0.285282
v 0.029072 0.010581 0.285282
v 0.026793 0.015469 0.285282
v 0.023700 0.019887 0.285282
v 0.019887 0.023700 0.285282
v 0.015469 0.026793 0.285282
v 0.010581 0.029072 0.285282
v 0.005372 0.030468 0.285282
v 0.000000 0.030938 0.285282
v -0.005372 0.030468 0.285282
v -0.010581 0.029072 0.285282
v -0.015469 0.026793 0.285282
v -0.019887 0.023700 0.285282
v -0.023700 0.019887 0.285282
v -0.026793 0.015469 0.285282
v -0.029072 0.010581 0.285282
v -0.030468 0.005372 0.285282
v -0.030938 0.000000 0.285282
v -0.030468 -0.005372 0.285282
v -0.029072 -0.010581 0.285282
v -0.026793 -0.015469 0.285282
v -0.023700 -0.019887 0.285282
v -0.019887 -0.023700 0.285282
v -0.015469 -0.026793 0.285282
v -0.010581 -0.029072 0.285282
v -0.005372 -0.030468 0.285282
v 0.000000 -0.030938 0.285282
v 0.005372 -0.030468 0.285282
v 0.010581 -0.029072 0.285282
v 0.015469 -0.026793 0.285282
v 0.019887 -0.023700 0.285282
v 0.023700 -0.019887 0.285282
v 0.026793 -0.015469 0.285282
v 0.029072 -0.010581 0.285282
v 0.030468 -0.005372 0.285282
v 0.019900 0.000000 0.294000
v 0.019597 0.003456 0.294000
v 0.018700 0.006806 0.294000
v 0.017234 0.009950 0.294000
v 0.015244 0.012791 0.294000
v 0.012791 0.015244 0.294000
v 0.009950 0.017234 0.294000
v 0.006806 0.018700 0.294000
v 0.003456 0.019597 0.294000
v 0.000000 0.019900 0.294000
v -0.003456 0.019597 0.294000
v -0.006806 0.018700 0.294000
v -0.009950 0.017234 0.294000
v -0.012791 0.015244 0.294000
v -0.015244 0.012791 0.294000
v -0.017234 0.009950 0.294000
v -0.018700 0.006806 0.294000
v -0.019597 0.003456 0.294000
v -0.019900 0.000000 0.294000
v -0.019597 -0.003456 0.294000
v -0.018700 -0.006806 0.294000
v -0.017234 -0.009950 0.294000
v -0.015244 -0.012791 0.294000
v -0.012791 -0.015244 0.294000
v -0.009950 -0.017234 0.294000
v -0.006806 -0.018700 0.294000
v -0.003456 -0.019597 0.294000
v 0.000000 -0.019900 0.294000
v 0.003456 -0.019597 0.294000
v 0.006806 -0.018700 0.294000
v 0.009950 -0.017234 0.294000
v 0.012791 -0.015244 0.294000
v 0.015244 -0.012791 0.294000
v 0.017234 -0.009950 0.294000
v 0.018700 -0.006806 0.294000
v 0.019597 -0.003456 0.294000
v 0.097000 0.000000 0.000000
v 0.095526 0.016844 0.000000
v 0.091150 0.033176 0.000000
v 0.084004 0.048500 0.000000
v 0.074306 0.062350 0.000000
v 0.062350 0.074306 0.000000
v 0.048500 0.084004 0.000000
v 0.033176 0.091150 0.000000
v 0.016844 0.095526 0.000000
v 0.000000 0.097000 0.000000
v -0.016844 0.095526 0.000000
v -0.033176 0.091150 0.000000
v -0.048500 0.084004 0.000000
v -0.062350 0.074306 0.000000
v -0.074306 0.062350 0.000000
v -0.084004 0.048500 0.000000
v -0.091150 0.033176 0.000000
v -0.095526 0.016844 0.000000
v -0.097000 0.000000 0.000000
v -0.095526 -0.016844 0.000000
v -0.091150 -0.033176 0.000000
v -0.084004 -0.048500 0.000000
v -0.074306 -0.062350 0.000000
v -0.062350 -0.074306 0.000000
v -0.048500 -0.084004 0.000000
v -0.033176 -0.091150 0.000000
v -0.016844 -0.095526 0.000000
v 0.000000 -0.097000 0.000000
v 0.016844 -0.095526 0.000000
v 0.033176 -0.091150 0.000000
v 0.048500 -0.084004 0.000000
v 0.062350 -0.074306 0.000000
v 0.074306 -0.062350 0.000000
v 0.084004 -0.048500 0.000000
v 0.091150 -0.033176 0.000000
v 0.095526 -0.016844 0.000000
v 0.096351 0.000000 0.034072
v 0.094887 0.016731 0.034072
v 0.090540 0.032954 0.034072
v 0.083442 0.048175 0.034072
v 0.073809 0.061933 0.034072
v 0.061933 0.073809 0.034072
v 0.048175 0.083442 0.034072
v 0.032954 0.090540 0.034072
v 0.016731 0.094887 0.034072
v 0.000000 0.096351 0.034072
v -0.016731 0.094887 0.034072
v -0.032954 0.090540 0.034072
v -0.048175 0.083442 0.034072
v -0.061933 0.073809 0.034072
v -0.073809 0.061933 0.034072
v -0.083442 0.048175 0.034072
v -0.090540 0.032954 0.034072
v -0.094887 0.016731 0.034072
v -0.096351 0.000000 0.034072
v -0.094887 -0.016731 0.034072
v -0.090540 -0.032954 0.034072
v -0.083442 -0.048175 0.034072
v -0.073809 -0.061933 0.034072
v -0.061933 -0.073809 0.034072
v -0.048175 -0.083442 0.034072
v -0.032954 -0.090540 0.034072
v -0.016731 -0.094887 0.034072
v 0.000000 -0.096351 0.034072
v 0.016731 -0.094887 0.034072
v 0.032954 -0.090540 0.034072
v 0.048175 -0.083442 0.034072
v 0.061933 -0.073809 0.034072
v 0.073809 -0.061933 0.034072
v 0.083442 -0.048175 0.034072
v 0.090540 -0.032954 0.034072
v 0.094887 -0.016731 0.034072
v 0.094412 0.000000 0.067697
v 0.092977 0.016394 0.067697
v 0.088718 0.032291 0.067697
v 0.081763 0.047206 0.067697
v 0.072324 0.060687 0.067697
v 0.060687 0.072324 0.067697
v 0.047206 0.081763 0.067697
v 0.032291 0.088718 0.067697
v 0.016394 0.092977 0.067697
v 0.000000 0.094412 0.067697
v -0.016394 0.092977 0.067697
v -0.032291 0.088718 0.067697
v -0.047206 0.081763 0.067697
v -0.060687 0.072324 0.067697
v -0.072324 0.060687 0.067697
v -0.081763 0.047206 0.067697
v -0.088718 0.032291 0.067697
v -0.092977 0.016394 0.067697
v -0.094412 0.000000 0.067697
v -0.092977 -0.016394 0.067697
v -0.088718 -0.032291 0.067697
v -0.081763 -0.047206 0.067697
v -0.072324 -0.060687 0.067697
v -0.060687 -0.072324 0.067697
v -0.047206 -0.081763 0.067697
v -0.032291 -0.088718 0.067697
v -0.016394 -0.092977 0.067697
v 0.000000 -0.094412 0.067697
v 0.016394 -0.092977 0.067697
v 0.032291 -0.088718 0.067697
v 0.047206 -0.081763 0.067697
v 0.060687 -0.072324 0.067697
v 0.072324 -0.060687 0.067697
v 0.081763 -0.047206 0.067697
v 0.088718 -0.032291 0.067697
v 0.092977 -0.016394 0.067697
v 0.091209 0.000000 0.100431
v 0.089823 0.015838 0.100431
v 0.085708 0.031195 0.100431
v 0.078989 0.045604 0.100431
v 0.069870 0.058628 0.100431
v 0.058628 0.069870 0.100431
v 0.045604 0.078989 0.100431
v 0.031195 0.085708 0.100431
v 0.015838 0.089823 0.100431
v 0.000000 0.091209 0.100431
v -0.015838 0.089823 0.100431
v -0.031195 0.085708 0.100431
v -0.045604 0.078989 0.100431
v -0.058628 0.069870 0.100431
v -0.069870 0.058628 0.100431
v -0.078989 0.045604 0.100431
v -0.085708 0.031195 0.100431
v -0.089823 0.015838 0.100431
v -0.091209 0.000000 0.100431
v -0.089823 -0.015838 0.100431
v -0.085708 -0.031195 0.100431
v -0.078989 -0.045604 0.100431
v -0.069870 -0.058628 0.100431
v -0.058628 -0.069870 0.100431
v -0.045604 -0.078989 0.100431
v -0.031195 -0.085708 0.100431
v -0.015838 -0.089823 0.100431
v 0.000000 -0.091209 0.100431
v 0.015838 -0.089823 0.100431
v 0.031195 -0.085708 0.100431
v 0.045604 -0.078989 0.100431
v 0.058628 -0.069870 0.100431
v 0.069870 -0.058628 0.100431
v 0.078989 -0.045604 0.100431
v 0.085708 -0.031195 0.100431
v 0.089823 -0.015838 0.100431
v 0.086785 0.000000 0.131844
v 0.085467 0.015070 0.131844
v 0.081552 0.029682 0.131844
v 0.075158 0.043393 0.131844
v 0.066481 0.055785 0.131844
v 0.055785 0.066481 0.131844
v 0.043393 0.075158 0.131844
v 0.029682 0.081552 0.131844
v 0.015070 0.085467 0.131844
v 0.000000 0.086785 0.131844
v -0.015070 0.085467 0.131844
v -0.029682 0.081552 0.131844
v -0.043393 0.075158 0.131844
v -0.055785 0.066481 0.131844
v -0.066481 0.055785 0.131844
v -0.075158 0.043393 0.131844
v -0.081552 0.029682 0.131844
v -0.085467 0.015070 0.131844
v -0.086785 0.000000 0.131844
v -0.085467 -0.015070 0.131844
v -0.081552 -0.029682 0.131844
v -0.075158 -0.043393 0.131844
v -0.066481 -0.055785 0.131844
v -0.055785 -0.066481 0.131844
v -0.043393 -0.075158 0.131844
v -0.029682 -0.081552 0.131844
v -0.015070 -0.085467 0.131844
v 0.000000 -0.086785 0.131844
v 0.015070 -0.085467 0.131844
v 0.029682 -0.081552 0.131844
v 0.043393 -0.075158 0.131844
v 0.055785 -0.066481 0.131844
v 0.066481 -0.055785 0.131844
v 0.075158 -0.043393 0.131844
v 0.081552 -0.029682 0.131844
v 0.085467 -0.015070 0.131844
v 0.081201 0.000000 0.161520
v 0.079968 0.014100 0.161520
v 0.076304 0.027772 0.161520
v 0.070322 0.040601 0.161520
v 0.062204 0.052195 0.161520
v 0.052195 0.062204 0.161520
v 0.040601 0.070322 0.161520
v 0.027772 0.076304 0.161520
v 0.014100 0.079968 0.161520
v 0.000000 0.081201 0.161520
v -0.014100 0.079968 0.161520
v -0.027772 0.076304 0.161520
v -0.040601 0.070322 0.161520
v -0.052195 0.062204 0.161520
v -0.062204 0.052195 0.161520
v -0.070322 0.040601 0.161520
v -0.076304 0.027772 0.161520
v -0.079968 0.014100 0.161520
v -0.081201 0.000000 0.161520
v -0.079968 -0.014100 0.161520
v -0.076304 -0.027772 0.161520
v -0.070322 -0.040601 0.161520
v -0.062204 -0.052195 0.161520
v -0.052195 -0.062204 0.161520
v -0.040601 -0.070322 0.161520
v -0.027772 -0.076304 0.161520
v -0.014100 -0.079968 0.161520
v 0.000000 -0.081201 0.161520
v 0.014100 -0.079968 0.161520
v 0.027772 -0.076304 0.161520
v 0.040601 -0.070322 0.161520
v 0.052195 -0.062204 0.161520
v 0.062204 -0.052195 0.161520
v 0.070322 -0.040601 0.161520
v 0.076304 -0.027772 0.161520
v 0.079968 -0.014100 0.161520
v 0.074533 0.000000 0.189067
v 0.073400 0.012942 0.189067
v 0.070038 0.025492 0.189067
v 0.064547 0.037266 0.189067
v 0.057095 0.047909 0.189067
v 0.047909 0.057095 0.189067
v 0.037266 0.064547 0.189067
v 0.025492 0.070038 0.189067
v 0.012942 0.073400 0.189067
v 0.000000 0.074533 0.189067
v -0.012942 0.073400 0.189067
v -0.025492 0.070038 0.189067
v -0.037266 0.064547 0.189067
v -0.047909 0.057095 0.189067
v -0.057095 0.047909 0.189067
v -0.064547 0.037266 0.189067
v -0.070038 0.025492 0.189067
v -0.073400 0.012942 0.189067
v -0.074533 0.000000 0.189067
v -0.073400 -0.012942 0.189067
v -0.070038 -0.025492 0.189067
v -0.064547 -0.037266 0.189067
v -0.057095 -0.047909 0.189067
v -0.047909 -0.057095 0.189067
v -0.037266 -0.064547 0.189067
v -0.025492 -0.070038 0.189067
v -0.012942 -0.073400 0.189067
v 0.000000 -0.074533 0.189067
v 0.012942 -0.073400 0.189067
v 0.025492 -0.070038 0.189067
v 0.037266 -0.064547 0.189067
v 0.047909 -0.057095 0.189067
v 0.057095 -0.047909 0.189067
v 0.064547 -0.037266 0.189067
v 0.070038 -0.025492 0.189067
v 0.073400 -0.012942 0.189067
v 0.066873 0.000000 0.214116
v 0.065857 0.011612 0.214116
v 0.062840 0.022872 0.214116
v 0.057914 0.033437 0.214116
v 0.051228 0.042985 0.214116
v 0.042985 0.051228 0.214116
v 0.033437 0.057914 0.214116
v 0.022872 0.062840 0.214116
v 0.011612 0.065857 0.214116
v 0.000000 0.066873 0.214116
v -0.011612 0.065857 0.214116
v -0.022872 0.062840 0.214116
v -0.033437 0.057914 0.214116
v -0.042985 0.051228 0.214116
v -0.051228 0.042985 0.214116
v -0.057914 0.033437 0.214116
v -0.062840 0.022872 0.214116
v -0.065857 0.011612 0.214116
v -0.066873 0.000000 0.214116
v -0.065857 -0.011612 0.214116
v -0.062840 -0.022872 0.214116
v -0.057914 -0.033437 0.214116
v -0.051228 -0.042985 0.214116
v -0.042985 -0.051228 0.214116
v -0.033437 -0.057914 0.214116
v -0.022872 -0.062840 0.214116
v -0.011612 -0.065857 0.214116
v 0.000000 -0.066873 0.214116
v 0.011612 -0.065857 0.214116
v 0.022872 -0.062840 0.214116
v 0.033437 -0.057914 0.214116
v 0.042985 -0.051228 0.214116
v 0.051228 -0.042985 0.214116
v 0.057914 -0.033437 0.214116
v 0.062840 -0.022872 0.214116
v 0.065857 -0.011612 0.214116
v 0.058333 0.000000 0.236330
v 0.057447 0.010129 0.236330
v 0.054815 0.019951 0.236330
v 0.050518 0.029166 0.236330
v 0.044685 0.037496 0.236330
v 0.037496 0.044685 0.236330
v 0.029166 0.050518 0.236330
v 0.019951 0.054815 0.236330
v 0.010129 0.057447 0.236330
v 0.000000 0.058333 0.236330
v -0.010129 0.057447 0.236330
v -0.019951 0.054815 0.236330
v -0.029166 0.050518 0.236330
v -0.037496 0.044685 0.236330
v -0.044685 0.037496 0.236330
v -0.050518 0.029166 0.236330
v -0.054815 0.019951 0.236330
v -0.057447 0.010129 0.236330
v -0.058333 0.000000 0.236330
v -0.057447 -0.010129 0.236330
v -0.054815 -0.019951 0.236330
v -0.050518 -0.029166 0.236330
v -0.044685 -0.037496 0.236330
v -0.037496 -0.044685 0.236330
v -0.029166 -0.050518 0.236330
v -0.019951 -0.054815 0.236330
v -0.010129 -0.057447 0.236330
v 0.000000 -0.058333 0.236330
v 0.010129 -0.057447 0.236330
v 0.019951 -0.054815 0.236330
v 0.029166 -0.050518 0.236330
v 0.037496 -0.044685 0.236330
v 0.044685 -0.037496 0.236330
v 0.050518 -0.029166 0.236330
v 0.054815 -0.019951 0.236330
v 0.057447 -0.010129 0.236330
v 0.049040 0.000000 0.255406
v 0.048295 0.008516 0.255406
v 0.046083 0.016773 0.255406
v 0.042470 0.024520 0.255406
v 0.037567 0.031523 0.255406
v 0.031523 0.037567 0.255406
v 0.024520 0.042470 0.255406
v 0.016773 0.046083 0.255406
v 0.008516 0.048295 0.255406
v 0.000000 0.049040 0.255406
v -0.008516 0.048295 0.255406
v -0.016773 0.046083 0.255406
v -0.024520 0.042470 0.255406
v -0.031523 0.037567 0.255406
v -0.037567 0.031523 0.255406
v -0.042470 0.024520 0.255406
v -0.046083 0.016773 0.255406
v -0.048295 0.008516 0.255406
v -0.049040 0.000000 0.255406
v -0.048295 -0.008516 0.255406
v -0.046083 -0.016773 0.255406
v -0.042470 -0.024520 0.255406
v -0.037567 -0.031523 0.255406
v -0.031523 -0.037567 0.255406
v -0.024520 -0.042470 0.255406
v -0.016773 -0.046083 0.255406
v -0.008516 -0.048295 0.255406
v 0.000000 -0.049040 0.255406
v 0.008516 -0.048295 0.255406
v 0.016773 -0.046083 0.255406
v 0.024520 -0.042470 0.255406
v 0.031523 -0.037567 0.255406
v 0.037567 -0.031523 0.255406
v 0.042470 -0.024520 0.255406
v 0.046083 -0.016773 0.255406
v 0.048295 -0.008516 0.255406
v 0.039149 0.000000 0.271079
v 0.038554 0.006798 0.271079
v 0.036788 0.013390 0.271079
v 0.033904 0.019575 0.271079
v 0.029990 0.025165 0.271079
v 0.025165 0.029990 0.271079
v 0.019575 0.033904 0.271079
v 0.013390 0.036788 0.271079
v 0.006798 0.038554 0.271079
v 0.000000 0.039149 0.271079
v -0.006798 0.038554 0.271079
v -0.013390 0.036788 0.271079
v -0.019575 0.033904 0.271079
v -0.025165 0.029990 0.271079
v -0.029990 0.025165 0.271079
v -0.033904 0.019575 0.271079
v -0.036788 0.013390 0.271079
v -0.038554 0.006798 0.271079
v -0.039149 0.000000 0.271079
v -0.038554 -0.006798 0.271079
v -0.036788 -0.013390 0.271079
v -0.033904 -0.019575 0.271079
v -0.029990 -0.025165 0.271079
v -0.025165 -0.029990 0.271079
v -0.019575 -0.033904 0.271079
v -0.013390 -0.036788 0.271079
v -0.006798 -0.038554 0.271079
v 0.000000 -0.039149 0.271079
v 0.006798 -0.038554 0.271079
v 0.013390 -0.036788 0.271079
v 0.019575 -0.033904 0.271079
v 0.025165 -0.029990 0.271079
v 0.029990 -0.025165 0.271079
v 0.033904 -0.019575 0.271079
v 0.036788 -0.013390 0.271079
v 0.038554 -0.006798 0.271079
v 0.028842 0.000000 0.283135
v 0.028404 0.005008 0.283135
v 0.027103 0.009865 0.283135
v 0.024978 0.014421 0.283135
v 0.022095 0.018540 0.283135
v 0.018540 0.022095 0.283135
v 0.014421 0.024978 0.283135
v 0.009865 0.027103 0.283135
v 0.005008 0.028404 0.283135
v 0.000000 0.028842 0.283135
v -0.005008 0.028404 0.283135
v -0.009865 0.027103 0.283135
v -0.014421 0.024978 0.283135
v -0.018540 0.022095 0.283135
v -0.022095 0.018540 0.283135
v -0.024978 0.014421 0.283135
v -0.027103 0.009865 0.283135
v -0.028404 0.005008 0.283135
v -0.028842 0.000000 0.283135
v -0.028404 -0.005008 0.283135
v -0.027103 -0.009865 0.283135
v -0.024978 -0.014421 0.283135
v -0.022095 -0.018540 0.283135
v -0.018540 -0.022095 0.283135
v -0.014421 -0.024978 0.283135
v -0.009865 -0.027103 0.283135
v -0.005008 -0.028404 0.283135
v 0.000000 -0.028842 0.283135
v 0.005008 -0.028404 0.283135
v 0.009865 -0.027103 0.283135
v 0.014421 -0.024978 0.283135
v 0.018540 -0.022095 0.283135
v 0.022095 -0.018540 0.283135
v 0.024978 -0.014421 0.283135
v 0.027103 -0.009865 0.283135
v 0.028404 -0.005008 0.283135
v 0.018339 0.000000 0.291438
v 0.018060 0.003185 0.291438
v 0.017233 0.006272 0.291438
v 0.015882 0.009170 0.291438
v 0.014048 0.011788 0.291438
v 0.011788 0.014048 0.291438
v 0.009170 0.015882 0.291438
v 0.006272 0.017233 0.291438
v 0.003185 0.018060 0.291438
v 0.000000 0.018339 0.291438
v -0.003185 0.018060 0.291438
v -0.006272 0.017233 0.291438
v -0.009170 0.015882 0.291438
v -0.011788 0.014048 0.291438
v -0.014048 0.011788 0.291438
v -0.015882 0.009170 0.291438
v -0.017233 0.006272 0.291438
v -0.018060 0.003185 0.291438
v -0.018339 0.000000 0.291438
v -0.018060 -0.003185 0.291438
v -0.017233 -0.006272 0.291438
v -0.015882 -0.009170 0.291438
v -0.014048 -0.011788 0.291438
v -0.011788 -0.014048 0.291438
v -0.009170 -0.015882 0.291438
v -0.006272 -0.017233 0.291438
v -0.003185 -0.018060 0.291438
v 0.000000 -0.018339 0.291438
v 0.003185 -0.018060 0.291438
v 0.006272 -0.017233 0.291438
v 0.009170 -0.015882 0.291438
v 0.011788 -0.014048 0.291438
v 0.014048 -0.011788 0.291438
v 0.015882 -0.009170 0.291438
v 0.017233 -0.006272 0.291438
v 0.018060 -0.003185 0.291438


g skin_outer
f 1 2 38 37
f 2 3 39 38
f 3 4 40 39
f 4 5 41 40
f 5 6 42 41
f 6 7 43 42
f 7 8 44 43
f 8 9 45 44
f 9 10 46 45
f 10 11 47 46
f 11 12 48 47
f 12 13 49 48
f 13 14 50 49
f 14 15 51 50
f 15 16 52 51
f 16 17 53 52
f 17 18 54 53
f 18 19 55 54
f 19 20 56 55
f 20 21 57 56
f 21 22 58 57
f 22 23 59 58
f 23 24 60 59
f 24 25 61 60
f 25 26 62 61
f 26 27 63 62
f 27 28 64 63
f 28 29 65 64
f 29 30 66 65
f 30 31 67 66
f 31 32 68 67
f 32 33 69 68
f 33 34 70 69
f 34 35 71 70
f 35 36 72 71
f 36 1 37 72
f 37 38 74 73
f 38 39 75 74
f 39 40 76 75
f 40 41 77 76
f 41 42 78 77
f 42 43 79 78
f 43 44 80 79
f 44 45 81 80
f 45 46 82 81
f 46 47 83 82
f 47 48 84 83
f 48 49 85 84
f 49 50 86 85
f 50 51 87 86
f 51 52 88 87
f 52 53 89 88
f 53 54 90 89
f 54 55 91 90
f 55 56 92 91
f 56 57 93 92
f 57 58 94 93
f 58 59 95 94
f 59 60 96 95
f 60 61 97 96
f 61 62 98 97
f 62 63 99 98
f 63 64 100 99
f 64 65 101 100
f 65 66 102 101
f 66 67 103 102
f 67 68 104 103
f 68 69 105 104
f 69 70 106 105
f 70 71 107 106
f 71 72 108 107
f 72 37 73 108
f 73 74 110 109
f 74 75 111 110
f 75 76 112 111
f 76 77 113 112
f 77 78 114 113
f 78 79 115 114
f 79 80 116 115
f 80 81 117 116
f 81 82 118 117
f 82 83 119 118
f 83 84 120 119
f 84 85 121 120
f 85 86 122 121
f 86 87 123 122
f 87 88 124 123
f 88 89 125 124
f 89 90 126 125
f 90 91 127 126
f 91 92 128 127
f 92 93 129 128
f 93 94 130 129
f 94 95 131 130
f 95 96 132 131
f 96 97 133 132
f 97 98 134 133
f 98 99 135 134
f 99 100 136 135
f 100 101 137 136
f 101 102 138 137
f 102 103 139 138
f 103 104 140 139
f 104 105 141 140
f 105 106 142 141
f 106 107 143 142
f 107 108 144 143
f 108 73 109 144
f 109 110 146 145
f 110 111 147 146
f 111 112 148 147
f 112 113 149 148
f 113 114 150 149
f 114 115 151 150
f 115 116 152 151
f 116 117 153 152
f 117 118 154 153
f 118 119 155 154
f 119 120 156 155
f 120 121 157 156
f 121 122 158 157
f 122 123 159 158
f 123 124 160 159
f 124 125 161 160
f 125 126 162 161
f 126 127 163 162
f 127 128 164 163
f 128 129 165 164
f 129 130 166 165
f 130 131 167 166
f 131 132 168 167
f 132 133 169 168
f 133 134 170 169
f 134 135 171 170
f 135 136 172 171
f 136 137 173 172
f 137 138 174 173
f 138 139 175 174
f 139 140 176 175
f 140 141 177 176
f 141 142 178 177
f 142 143 179 178
f 143 144 180 179
f 144 109 145 180
f 145 146 182 181
f 146 147 183 182
f 147 148 184 183
f 148 149 185 184
f 149 150 186 185
f 150 151 187 186
f 151 152 188 187
f 152 153 189 188
f 153 154 190 189
f 154 155 191 190
f 155 156 192 191
f 156 157 193 192
f 157 158 194 193
f 158 159 195 194
f 159 160 196 195
f 160 161 197 196
f 161 162 198 197
f 162 163 199 198
f 163 164 200 199
f 164 165 201 200
f 165 166 202 201
f 166 167 203 202
f 167 168 204 203
f 168 169 205 204
f 169 170 206 205
f 170 171 207 206
f 171 172 208 207
f 172 173 209 208
f 173 174 210 209
f 174 175 211 210
f 175 176 212 211
f 176 177 213 212
f 177 178 214 213
f 178 179 215 214
f 179 180 216 215
f 180 145 181 216
f 181 182 218 217
f 182 183 219 218
f 183 184 220 219
f 184 185 221 220
f 185 186 222 221
f 186 187 223 222
f 187 188 224 223
f 188 189 225 224
f 189 190 226 225
f 190 191 227 226
f 191 192 228 227
f 192 193 229 228
f 193 194 230 229
f 194 195 231 230
f 195 196 232 231
f 196 197 233 232
f 197 198 234 233
f 198 199 235 234
f 199 200 236 235
f 200 201 237 236
f 201 202 238 237
f 202 203 239 238
f 203 204 240 239
f 204 205 241 240
f 205 206 242 241
f 206 207 243 242
f 207 208 244 243
f 208 209 245 244
f 209 210 246 245
f 210 211 247 246
f 211 212 248 247
f 212 213 249 248
f 213 214 250 249
f 214 215 251 250
f 215 216 252 251
f 216 181 217 252
f 217 218 254 253
f 218 219 255 254
f 219 220 256 255
f 220 221 257 256
f 221 222 258 257
f 222 223 259 258
f 223 224 260 259
f 224 225 261 260
f 225 226 262 261
f 226 227 263 262
f 227 228 264 263
f 228 229 265 264
f 229 230 266 265
f 230 231 267 266
f 231 232 268 267
f 232 233 269 268
f 233 234 270 269
f 234 235 271 270
f 235 236 272 271
f 236 237 273 272
f 237 238 274 273
f 238 239 275 274
f 239 240 276 275
f 240 241 277 276
f 241 242 278 277
f 242 243 279 278
f 243 244 280 279
f 244 245 281 280
f 245 246 282 281
f 246 247 283 282
f 247 248 284 283
f 248 249 285 284
f 249 250 286 285
f 250 251 287 286
f 251 252 288 287
f 252 217 253 288
f 253 254 290 289
f 254 255 291 290
f 255 256 292 291
f 256 257 293 292
f 257 258 294 293
f 258 259 295 294
f 259 260 296 295
f 260 261 297 296
f 261 262 298 297
f 262 263 299 298
f 263 264 300 299
f 264 265 301 300
f 265 266 302 301
f 266 267 303 302
f 267 268 304 303
f 268 269 305 304
f 269 270 306 305
f 270 271 307 306
f 271 272 308 307
f 272 273 309 308
f 273 274 310 309
f 274 275 311 310
f 275 276 312 311
f 276 277 313 312
f 277 278 314 313
f 278 279 315 314
f 279 280 316 315
f 280 281 317 316
f 281 282 318 317
f 282 283 319 318
f 283 284 320 319
f 284 285 321 320
f 285 286 322 321
f 286 287 323 322
f 287 288 324 323
f 288 253 289 324
f 289 290 326 325
f 290 291 327 326
f 291 292 328 327
f 292 293 329 328
f 293 294 330 329
f 294 295 331 330
f 295 296 332 331
f 296 297 333 332
f 297 298 334 333
f 298 299 335 334
f 299 300 336 335
f 300 301 337 336
f 301 302 338 337
f 302 303 339 338
f 303 304 340 339
f 304 305 341 340
f 305 306 342 341
f 306 307 343 342
f 307 308 344 343
f 308 309 345 344
f 309 310 346 345
f 310 311 347 346
f 311 312 348 347
f 312 313 349 348
f 313 314 350 349
f 314 315 351 350
f 315 316 352 351
f 316 317 353 352
f 317 318 354 353
f 318 319 355 354
f 319 320 356 355
f 320 321 357 356
f 321 322 358 357
f 322 323 359 358
f 323 324 360 359
f 324 289 325 360
f 325 326 362 361
f 326 327 363 362
f 327 328 364 363
f 328 329 365 364
f 329 330 366 365
f 330 331 367 366
f 331 332 368 367
f 332 333 369 368
f 333 334 370 369
f 334 335 371 370
f 335 336 372 371
f 336 337 373 372
f 337 338 374 373
f 338 339 375 374
f 339 340 376 375
f 340 341 377 376
f 341 342 378 377
f 342 343 379 378
f 343 344 380 379
f 344 345 381 380
f 345 346 382 381
f 346 347 383 382
f 347 348 384 383
f 348 349 385 384
f 349 350 386 385
f 350 351 387 386
f 351 352 388 387
f 352 353 389 388
f 353 354 390 389
f 354 355 391 390
f 355 356 392 391
f 356 357 393 392
f 357 358 394 393
f 358 359 395 394
f 359 360 396 395
f 360 325 361 396
f 361 362 398 397
f 362 363 399 398
f 363 364 400 399
f 364 365 401 400
f 365 366 402 401
f 366 367 403 402
f 367 368 404 403
f 368 369 405 404
f 369 370 406 405
f 370 371 407 406
f 371 372 408 407
f 372 373 409 408
f 373 374 410 409
f 374 375 411 410
f 375 376 412 411
f 376 377 413 412
f 377 378 414 413
f 378 379 415 414
f 379 380 416 415
f 380 381 417 416
f 381 382 418 417
f 382 383 419 418
f 383 384 420 419
f 384 385 421 420
f 385 386 422 421
f 386 387 423 422
f 387 388 424 423
f 388 389 425 424
f 389 390 426 425
f 390 391 427 426
f 391 392 428 427
f 392 393 429 428
f 393 394 430 429
f 394 395 431 430
f 395 396 432 431
f 396 361 397 432
f 397 398 434 433
f 398 399 435 434
f 399 400 436 435
f 400 401 437 436
f 401 402 438 437
f 402 403 439 438
f 403 404 440 439
f 404 405 441 440
f 405 406 442 441
f 406 407 443 442
f 407 408 444 443
f 408 409 445 444
f 409 410 446 445
f 410 411 447 446
f 411 412 448 447
f 412 413 449 448
f 413 414 450 449
f 414 415 451 450
f 415 416 452 451
f 416 417 453 452
f 417 418 454 453
f 418 419 455 454
f 419 420 456 455
f 420 421 457 456
f 421 422 458 457
f 422 423 459 458
f 423 424 460 459
f 424 425 461 460
f 425 426 462 461
f 426 427 463 462
f 427 428 464 463
f 428 429 465 464
f 429 430 466 465
f 430 431 467 466
f 431 432 468 467
f 432 397 433 468

g skin_inner
f 469 505 506 470
f 470 506 507 471
f 471 507 508 472
f 472 508 509 473
f 473 509 510 474
f 474 510 511 475
f 475 511 512 476
f 476 512 513 477
f 477 513 514 478
f 478 514 515 479
f 479 515 516 480
f 480 516 517 481
f 481 517 518 482
f 482 518 519 483
f 483 519 520 484
f 484 520 521 485
f 485 521 522 486
f 486 522 523 487
f 487 523 524 488
f 488 524 525 489
f 489 525 526 490
f 490 526 527 491
f 491 527 528 492
f 492 528 529 493
f 493 529 530 494
f 494 530 531 495
f 495 531 532 496
f 496 532 533 497
f 497 533 534 498
f 498 534 535 499
f 499 535 536 500
f 500 536 537 501
f 501 537 538 502
f 502 538 539 503
f 503 539 540 504
f 504 540 505 469
f 505 541 542 506
f 506 542 543 507
f 507 543 544 508
f 508 544 545 509
f 509 545 546 510
f 510 546 547 511
f 511 547 548 512
f 512 548 549 513
f 513 549 550 514
f 514 550 551 515
f 515 551 552 516
f 516 552 553 517
f 517 553 554 518
f 518 554 555 519
f 519 555 556 520
f 520 556 557 521
f 521 557 558 522
f 522 558 559 523
f 523 559 560 524
f 524 560 561 525
f 525 561 562 526
f 526 562 563 527
f 527 563 564 528
f 528 564 565 529
f 529 565 566 530
f 530 566 567 531
f 531 567 568 532
f 532 568 569 533
f 533 569 570 534
f 534 570 571 535
f 535 571 572 536
f 536 572 573 537
f 537 573 574 538
f 538 574 575 539
f 539 575 576 540
f 540 576 541 505
f 541 577 578 542
f 542 578 579 543
f 543 579 580 544
f 544 580 581 545
f 545 581 582 546
f 546 582 583 547
f 547 583 584 548
f 548 584 585 549
f 549 585 586 550
f 550 586 587 551
f 551 587 588 552
f 552 588 589 553
f 553 589 590 554
f 554 590 591 555
f 555 591 592 556
f 556 592 593 557
f 557 593 594 558
f 558 594 595 559
f 559 595 596 560
f 560 596 597 561
f 561 597 598 562
f 562 598 599 563
f 563 599 600 564
f 564 600 601 565
f 565 601 602 566
f 566 602 603 567
f 567 603 604 568
f 568 604 605 569
f 569 605 606 570
f 570 606 607 571
f 571 607 608 572
f 572 608 609 573
f 573 609 610 574
f 574 610 611 575
f 575 611 612 576
f 576 612 577 541
f 577 613 614 578
f 578 614 615 579
f 579 615 616 580
f 580 616 617 581
f 581 617 618 582
f 582 618 619 583
f 583 619 620 584
f 584 620 621 585
f 585 621 622 586
f 586 622 623 587
f 587 623 624 588
f 588 624 625 589
f 589 625 626 590
f 590 626 627 591
f 591 627 628 592
f 592 628 629 593
f 593 629 630 594
f 594 630 631 595
f 595 631 632 596
f 596 632 633 597
f 597 633 634 598
f 598 634 635 599
f 599 635 636 600
f 600 636 637 601
f 601 637 638 602
f 602 638 639 603
f 603 639 640 604
f 604 640 641 605
f 605 641 642 606
f 606 642 643 607
f 607 643 644 608
f 608 644 645 609
f 609 645 646 610
f 610 646 647 611
f 611 647 648 612
f 612 648 613 577
f 613 649 650 614
f 614 650 651 615
f 615 651 652 616
f 616 652 653 617
f 617 653 654 618
f 618 654 655 619
f 619 655 656 620
f 620 656 657 621
f 621 657 658 622
f 622 658 659 623
f 623 659 660 624
f 624 660 661 625
f 625 661 662 626
f 626 662 663 627
f 627 663 664 628
f 628 664 665 629
f 629 665 666 630
f 630 666 667 631
f 631 667 668 632
f 632 668 669 633
f 633 669 670 634
f 634 670 671 635
f 635 671 672 636
f 636 672 673 637
f 637 673 674 638
f 638 674 675 639
f 639 675 676 640
f 640 676 677 641
f 641 677 678 642
f 642 678 679 643
f 643 679 680 644
f 644 680 681 645
f 645 681 682 646
f 646 682 683 647
f 647 683 684 648
f 648 684 649 613
f 649 685 686 650
f 650 686 687 651
f 651 687 688 652
f 652 688 689 653
f 653 689 690 654
f 654 690 691 655
f 655 691 692 656
f 656 692 693 657
f 657 693 694 658
f 658 694 695 659
f 659 695 696 660
f 660 696 697 661
f 661 697 698 662
f 662 698 699 663
f 663 699 700 664
f 664 700 701 665
f 665 701 702 666
f 666 702 703 667
f 667 703 704 668
f 668 704 705 669
f 669 705 706 670
f 670 706 707 671
f 671 707 708 672
f 672 708 709 673
f 673 709 710 674
f 674 710 711 675
f 675 711 712 676
f 676 712 713 677
f 677 713 714 678
f 678 714 715 679
f 679 715 716 680
f 680 716 717 681
f 681 717 718 682
f 682 718 719 683
f 683 719 720 684
f 684 720 685 649
f 685 721 722 686
f 686 722 723 687
f 687 723 724 688
f 688 724 725 689
f 689 725 726 690
f 690 726 727 691
f 691 727 728 692
f 692 728 729 693
f 693 729 730 694
f 694 730 731 695
f 695 731 732 696
f 696 732 733 697
f 697 733 734 698
f 698 734 735 699
f 699 735 736 700
f 700 736 737 701
f 701 737 738 702
f 702 738 739 703
f 703 739 740 704
f 704 740 741 705
f 705 741 742 706
f 706 742 743 707
f 707 743 744 708
f 708 744 745 709
f 709 745 746 710
f 710 746 747 711
f 711 747 748 712
f 712 748 749 713
f 713 749 750 714
f 714 750 751 715
f 715 751 752 716
f 716 752 753 717
f 717 753 754 718
f 718 754 755 719
f 719 755 756 720
f 720 756 721 685
f 721 757 758 722
f 722 758 759 723
f 723 759 760 724
f 724 760 761 725
f 725 761 762 726
f 726 762 763 727
f 727 763 764 728
f 728 764 765 729
f 729 765 766 730
f 730 766 767 731
f 731 767 768 732
f 732 768 769 733
f 733 769 770 734
f 734 770 771 735
f 735 771 772 736
f 736 772 773 737
f 737 773 774 738
f 738 774 775 739
f 739 775 776 740
f 740 776 777 741
f 741 777 778 742
f 742 778 779 743
f 743 779 780 744
f 744 780 781 745
f 745 781 782 746
f 746 782 783 747
f 747 783 784 748
f 748 784 785 749
f 749 785 786 750
f 750 786 787 751
f 751 787 788 752
f 752 788 789 753
f 753 789 790 754
f 754 790 791 755
f 755 791 792 756
f 756 792 757 721
f 757 793 794 758
f 758 794 795 759
f 759 795 796 760
f 760 796 797 761
f 761 797 798 762
f 762 798 799 763
f 763 799 800 764
f 764 800 801 765
f 765 801 802 766
f 766 802 803 767
f 767 803 804 768
f 768 804 805 769
f 769 805 806 770
f 770 806 807 771
f 771 807 808 772
f 772 808 809 773
f 773 809 810 774
f 774 810 811 775
f 775 811 812 776
f 776 812 813 777
f 777 813 814 778
f 778 814 815 779
f 779 815 816 780
f 780 816 817 781
f 781 817 818 782
f 782 818 819 783
f 783 819 820 784
f 784 820 821 785
f 785 821 822 786
f 786 822 823 787
f 787 823 824 788
f 788 824 825 789
f 789 825 826 790
f 790 826 827 791
f 791 827 828 792
f 792 828 793 757
f 793 829 830 794
f 794 830 831 795
f 795 831 832 796
f 796 832 833 797
f 797 833 834 798
f 798 834 835 799
f 799 835 836 800
f 800 836 837 801
f 801 837 838 802
f 802 838 839 803
f 803 839 840 804
f 804 840 841 805
f 805 841 842 806
f 806 842 843 807
f 807 843 844 808
f 808 844 845 809
f 809 845 846 810
f 810 846 847 811
f 811 847 848 812
f 812 848 849 813
f 813 849 850 814
f 814 850 851 815
f 815 851 852 816
f 816 852 853 817
f 817 853 854 818
f 818 854 855 819
f 819 855 856 820
f 820 856 857 821
f 821 857 858 822
f 822 858 859 823
f 823 859 860 824
f 824 860 861 825
f 825 861 862 826
f 826 862 863 827
f 827 863 864 828
f 828 864 829 793
f 829 865 866 830
f 830 866 867 831
f 831 867 868 832
f 832 868 869 833
f 833 869 870 834
f 834 870 871 835
f 835 871 872 836
f 836 872 873 837
f 837 873 874 838
f 838 874 875 839
f 839 875 876 840
f 840 876 877 841
f 841 877 878 842
f 842 878 879 843
f 843 879 880 844
f 844 880 881 845
f 845 881 882 846
f 846 882 883 847
f 847 883 884 848
f 848 884 885 849
f 849 885 886 850
f 850 886 887 851
f 851 887 888 852
f 852 888 889 853
f 853 889 890 854
f 854 890 891 855
f 855 891 892 856
f 856 892 893 857
f 857 893 894 858
f 858 894 895 859
f 859 895 896 860
f 860 896 897 861
f 861 897 898 862
f 862 898 899 863
f 863 899 900 864
f 864 900 865 829
f 865 901 902 866
f 866 902 903 867
f 867 903 904 868
f 868 904 905 869
f 869 905 906 870
f 870 906 907 871
f 871 907 908 872
f 872 908 909 873
f 873 909 910 874
f 874 910 911 875
f 875 911 912 876
f 876 912 913 877
f 877 913 914 878
f 878 914 915 879
f 879 915 916 880
f 880 916 917 881
f 881 917 918 882
f 882 918 919 883
f 883 919 920 884
f 884 920 921 885
f 885 921 922 886
f 886 922 923 887
f 887 923 924 888
f 888 924 925 889
f 889 925 926 890
f 890 926 927 891
f 891 927 928 892
f 892 928 929 893
f 893 929 930 894
f 894 930 931 895
f 895 931 932 896
f 896 932 933 897
f 897 933 934 898
f 898 934 935 899
f 899 935 936 900
f 900 936 901 865

g base_flange
f 1 469 470 2
f 2 470 471 3
f 3 471 472 4
f 4 472 473 5
f 5 473 474 6
f 6 474 475 7
f 7 475 476 8
f 8 476 477 9
f 9 477 478 10
f 10 478 479 11
f 11 479 480 12
f 12 480 481 13
f 13 481 482 14
f 14 482 483 15
f 15 483 484 16
f 16 484 485 17
f 17 485 486 18
f 18 486 487 19
f 19 487 488 20
f 20 488 489 21
f 21 489 490 22
f 22 490 491 23
f 23 491 492 24
f 24 492 493 25
f 25 493 494 26
f 26 494 495 27
f 27 495 496 28
f 28 496 497 29
f 29 497 498 30
f 30 498 499 31
f 31 499 500 32
f 32 500 501 33
f 33 501 502 34
f 34 502 503 35
f 35 503 504 36
f 36 504 469 1

g nose_window
f 433 434 902 901
f 434 435 903 902
f 435 436 904 903
f 436 437 905 904
f 437 438 906 905
f 438 439 907 906
f 439 440 908 907
f 440 441 909 908
f 441 442 910 909
f 442 443 911 910
f 443 444 912 911
f 444 445 913 912
f 445 446 914 913
f 446 447 915 914
f 447 448 916 915
f 448 449 917 916
f 449 450 918 917
f 450 451 919 918
f 451 452 920 919
f 452 453 921 920
f 453 454 922 921
f 454 455 923 922
f 455 456 924 923
f 456 457 925 924
f 457 458 926 925
f 458 459 927 926
f 459 460 928 927
f 460 461 929 928
f 461 462 930 929
f 462 463 931 930
f 463 464 932 931
f 464 465 933 932
f 465 466 934 933
f 466 467 935 934
f 467 468 936 935
f 468 433 901 936
